<svg width="324" height="90" viewBox="0 0 324 90" fill="none" xmlns="http://www.w3.org/2000/svg">
<g clip-path="url(#clip0_1410:173)">
<path d="M113.025 38.6024C108.725 38.6024 106.15 41.2024 106.15 45.5524V55.1524H109.05V45.5524C109.05 42.7774 110.425 41.3274 113.025 41.3274C115.625 41.3274 117 42.8024 117 45.5524V46.1774H119.85V45.6024C119.85 41.2274 117.3 38.6024 113.025 38.6024Z" fill="#5FA8DC"/>
<path d="M131.3 38.6024C128.8 38.6024 126.675 39.4024 125.05 41.0274C123.45 42.6274 122.625 44.6774 122.625 47.1024C122.625 49.5524 123.45 51.6024 125.05 53.2024C126.675 54.7774 128.775 55.5774 131.3 55.5774C134.9 55.5774 137.925 53.6774 139.225 50.6274L139.475 50.0774H136.35L136.225 50.2774C135.275 51.9774 133.625 52.8274 131.3 52.8274C128.3 52.8274 126.075 50.9774 125.625 48.1774H139.9V47.0774C139.9 44.6524 139.075 42.6274 137.475 41.0024C135.875 39.4274 133.8 38.6024 131.3 38.6024ZM125.725 45.5024C126.325 42.9524 128.475 41.3274 131.3 41.3274C134.1 41.3274 136.25 42.9524 136.85 45.5024H125.725Z" fill="#5FA8DC"/>
<path d="M151.325 38.6024C148.825 38.6024 146.7 39.4024 145.075 41.0274C143.475 42.6274 142.65 44.6774 142.65 47.1024C142.65 49.6274 143.475 51.7024 145.075 53.2774C146.675 54.8274 148.675 55.6024 151 55.6024C153.625 55.6024 155.9 54.4774 157.225 52.6024V55.1774H159.95V47.2024C159.95 44.7024 159.125 42.6274 157.525 41.0024C155.975 39.4024 153.875 38.6024 151.325 38.6024ZM155.5 51.2024C154.4 52.3024 153.05 52.8274 151.35 52.8274C149.65 52.8274 148.275 52.3024 147.2 51.2024C146.15 50.1524 145.6 48.7524 145.6 47.0774C145.6 45.4024 146.125 44.0024 147.2 42.9524C148.3 41.8524 149.65 41.3274 151.35 41.3274C153.05 41.3274 154.425 41.8524 155.5 42.9524C156.55 44.0024 157.1 45.4024 157.1 47.0774C157.075 48.7774 156.55 50.1524 155.5 51.2024Z" fill="#5FA8DC"/>
<path d="M180.425 38.6024C177.975 38.6024 176 39.6774 174.9 41.5774C173.75 39.6524 171.825 38.6024 169.35 38.6024C165.275 38.6024 162.725 41.3524 162.725 45.7774V55.1524H165.625V45.7774C165.625 42.9524 167.05 41.3274 169.5 41.3274C171.975 41.3274 173.45 42.9774 173.45 45.7774V55.1524H176.35V45.7774C176.35 43.0024 177.825 41.3274 180.275 41.3274C182.75 41.3274 184.15 42.9524 184.15 45.7774V55.1524H187.05V45.7774C187.05 41.3524 184.5 38.6024 180.425 38.6024Z" fill="#5FA8DC"/>
<path d="M100.175 40.0524L82.925 29.9274C79.425 27.8774 75 30.4024 75 34.4774V54.7524C75 58.8274 79.425 61.3524 82.925 59.3024L100.175 49.1774C103.65 47.1024 103.65 42.1024 100.175 40.0524Z" fill="#5FA8DC"/>
<path d="M81.625 57.0774L85.575 54.7524L90.75 51.7274C91.75 51.1274 91.825 49.7274 90.875 49.0274L89.875 48.3024L80.95 41.8024V36.7774C80.95 36.2774 81.5 35.9524 81.925 36.2274L95.225 44.0524C95.65 44.3024 95.65 44.9274 95.225 45.1774L93.475 46.2024V50.1524L93.525 50.1274L98.875 46.9774C100.075 46.2524 100.225 45.1024 100.225 44.6274C100.225 44.1524 100.1 43.0024 98.875 42.2774L81.625 32.1524C80.4 31.4274 79.3 31.9024 78.9 32.1274C78.5 32.3524 77.525 33.0774 77.525 34.4774V42.1524V44.1774V44.2024L81.075 46.7524L86.175 50.4524L84.025 51.7024L81.9 52.9524C81.475 53.2024 80.925 52.9024 80.925 52.4024V50.2024L77.525 47.7524V54.7024C77.525 56.1274 78.475 56.8274 78.9 57.0524C79.325 57.3274 80.4 57.8024 81.625 57.0774Z" fill="white"/>
<path d="M204.725 54.7524H190.45V34.8024H192.65V52.7274H204.725V54.7524Z" fill="#595A5C"/>
<path d="M204.725 55.1774H190.45C190.225 55.1774 190.025 54.9774 190.025 54.7524V34.8024C190.025 34.5774 190.225 34.3774 190.45 34.3774H192.65C192.875 34.3774 193.075 34.5774 193.075 34.8024V52.3024H204.725C204.95 52.3024 205.15 52.5024 205.15 52.7274V54.7524C205.15 54.9774 204.95 55.1774 204.725 55.1774ZM190.875 54.3274H204.3V53.1524H192.65C192.425 53.1524 192.225 52.9524 192.225 52.7274V35.2274H190.875V54.3274V54.3274Z" fill="#595A5C"/>
<path d="M221.95 54.7525H220.05V51.1775H220C219 53.6275 216.575 55.1525 213.575 55.1525C211.375 55.1525 209.525 54.4275 208.025 52.9775C206.525 51.5025 205.775 49.6025 205.775 47.2025C205.775 44.9275 206.55 43.0275 208.025 41.5275C209.55 40.0275 211.5 39.2775 213.875 39.2775C216.25 39.2775 218.2 40.0025 219.7 41.5025C221.2 43.0025 221.95 44.9275 221.95 47.3025V54.7525V54.7525ZM213.875 53.2525C215.675 53.2525 217.1 52.6775 218.225 51.5525C219.35 50.4275 219.9 48.9525 219.9 47.2275C219.9 45.5025 219.35 44.0275 218.225 42.9025C217.1 41.7775 215.675 41.2025 213.875 41.2025C212.075 41.2025 210.65 41.7775 209.525 42.9025C208.4 44.0275 207.85 45.5025 207.85 47.2275C207.85 48.9525 208.4 50.4275 209.525 51.5525C210.65 52.6775 212.075 53.2525 213.875 53.2525Z" fill="#595A5C"/>
<path d="M213.575 55.5774C211.275 55.5774 209.3 54.8024 207.725 53.3024C206.15 51.7524 205.35 49.7024 205.35 47.2274C205.35 44.8524 206.15 42.8274 207.725 41.2524C209.35 39.6774 211.4 38.8774 213.875 38.8774C216.375 38.8774 218.45 39.6774 220 41.2274C221.575 42.8024 222.375 44.8524 222.375 47.3274V54.7774C222.375 55.0024 222.175 55.2024 221.95 55.2024H220.05C219.825 55.2024 219.625 55.0024 219.625 54.7774V52.7274C218.325 54.5024 216.125 55.5774 213.575 55.5774ZM213.875 39.7024C211.625 39.7024 209.75 40.4274 208.325 41.8274C206.9 43.2274 206.2 45.0524 206.2 47.2024C206.2 49.4524 206.925 51.2774 208.325 52.6524C209.75 54.0024 211.5 54.7024 213.575 54.7024C216.4 54.7024 218.675 53.3274 219.625 51.0024C219.7 50.8524 219.85 50.7524 220.025 50.7524H220.075C220.3 50.7524 220.5 50.9524 220.5 51.1774V54.3274H221.55V47.3024C221.55 45.0274 220.85 43.2524 219.425 41.8024C218 40.4274 216.15 39.7024 213.875 39.7024ZM213.875 53.6774C212 53.6774 210.425 53.0524 209.225 51.8524C208.025 50.6524 207.425 49.1024 207.425 47.2274C207.425 45.3524 208.025 43.8024 209.225 42.6024C210.45 41.3774 212 40.7774 213.875 40.7774C215.75 40.7774 217.325 41.4024 218.525 42.6024C219.725 43.8024 220.325 45.3524 220.325 47.2274C220.325 49.1024 219.725 50.6524 218.525 51.8524C217.325 53.0524 215.75 53.6774 213.875 53.6774ZM213.875 41.6024C212.2 41.6024 210.875 42.1274 209.825 43.1774C208.8 44.2024 208.275 45.5524 208.275 47.2024C208.275 48.8524 208.8 50.2024 209.825 51.2274C210.9 52.3024 212.225 52.8024 213.875 52.8024C215.55 52.8024 216.875 52.2774 217.925 51.2274C218.95 50.2024 219.475 48.8524 219.475 47.2024C219.475 45.5524 218.95 44.2024 217.925 43.1774C216.875 42.1274 215.55 41.6024 213.875 41.6024Z" fill="#595A5C"/>
<path d="M237.225 39.6774H239.275V47.5524C239.275 52.4274 236.375 55.1524 231.825 55.1524C227.275 55.1524 224.375 52.4274 224.375 47.5524V39.6774H226.425V47.5524C226.425 51.1774 228.5 53.2524 231.825 53.2524C235.15 53.2524 237.225 51.1774 237.225 47.5524V39.6774V39.6774Z" fill="#595A5C"/>
<path d="M231.825 55.5774C226.9 55.5774 223.95 52.5774 223.95 47.5524V39.6774C223.95 39.4524 224.15 39.2524 224.375 39.2524H226.425C226.65 39.2524 226.85 39.4524 226.85 39.6774V47.5524C226.85 50.9024 228.675 52.8274 231.825 52.8274C234.975 52.8274 236.8 50.9024 236.8 47.5524V39.6774C236.8 39.4524 237 39.2524 237.225 39.2524H239.275C239.5 39.2524 239.7 39.4524 239.7 39.6774V47.5524C239.7 52.5774 236.75 55.5774 231.825 55.5774ZM224.825 40.1024V47.5524C224.825 52.1024 227.375 54.7274 231.85 54.7274C236.325 54.7274 238.875 52.1024 238.875 47.5524V40.1024H237.675V47.5524C237.675 51.3274 235.45 53.6774 231.85 53.6774C228.25 53.6774 226.025 51.3274 226.025 47.5524V40.1024H224.825Z" fill="#595A5C"/>
<path d="M256.6 54.7524H254.55V46.8774C254.55 43.2274 252.475 41.1774 249.15 41.1774C245.825 41.1774 243.75 43.2274 243.75 46.8774V54.7524H241.7V46.8774C241.7 42.0024 244.6 39.2774 249.15 39.2774C253.7 39.2774 256.6 42.0024 256.6 46.8774V54.7524V54.7524Z" fill="#595A5C"/>
<path d="M256.6 55.1774H254.55C254.325 55.1774 254.125 54.9774 254.125 54.7524V46.8774C254.125 43.5274 252.3 41.6024 249.15 41.6024C246 41.6024 244.175 43.5274 244.175 46.8774V54.7524C244.175 54.9774 243.975 55.1774 243.75 55.1774H241.7C241.475 55.1774 241.275 54.9774 241.275 54.7524V46.8774C241.275 41.8524 244.225 38.8524 249.15 38.8524C254.075 38.8524 257.025 41.8524 257.025 46.8774V54.7524C257.025 54.9774 256.825 55.1774 256.6 55.1774ZM254.975 54.3274H256.175V46.8774C256.175 42.3274 253.625 39.7024 249.15 39.7024C244.675 39.7024 242.125 42.3274 242.125 46.8774V54.3274H243.325V46.8774C243.325 43.0524 245.5 40.7524 249.15 40.7524C252.8 40.7524 254.975 43.0524 254.975 46.8774V54.3274V54.3274Z" fill="#595A5C"/>
<path d="M272.2 44.9024C271.375 42.6274 269.25 41.1774 266.525 41.1774C264.725 41.1774 263.3 41.7524 262.175 42.8774C261.05 44.0024 260.5 45.4774 260.5 47.2024C260.5 48.9274 261.05 50.4024 262.175 51.5274C263.3 52.6524 264.725 53.2274 266.525 53.2274C269.25 53.2274 271.375 51.8024 272.2 49.5024H274.275C273.825 51.1774 272.9 52.5524 271.5 53.5774C270.125 54.5774 268.45 55.1024 266.525 55.1024C264.15 55.1024 262.2 54.3774 260.675 52.8774C259.175 51.3774 258.425 49.4524 258.425 47.1774C258.425 44.9024 259.175 43.0024 260.675 41.5024C262.2 40.0024 264.15 39.2524 266.525 39.2524C268.45 39.2524 270.125 39.7774 271.5 40.8024C272.9 41.8024 273.825 43.1774 274.275 44.8524H272.2V44.9024Z" fill="#595A5C"/>
<path d="M266.55 55.5774C264.05 55.5774 262 54.7774 260.4 53.2274C258.825 51.6524 258.025 49.6274 258.025 47.2274C258.025 44.8524 258.825 42.8274 260.4 41.2524C262.025 39.6774 264.075 38.8774 266.55 38.8774C268.575 38.8774 270.325 39.4274 271.775 40.5274C273.225 41.5774 274.2 43.0024 274.7 44.8024C274.725 44.9274 274.7 45.0774 274.625 45.1774C274.55 45.2774 274.425 45.3524 274.3 45.3524H272.225C272.05 45.3524 271.9 45.2524 271.825 45.0774C271.05 42.9274 269.075 41.6274 266.55 41.6274C264.875 41.6274 263.55 42.1524 262.5 43.2024C261.475 44.2274 260.95 45.5774 260.95 47.2274C260.95 48.8774 261.475 50.2274 262.5 51.2524C263.575 52.3274 264.9 52.8274 266.55 52.8274C269.075 52.8274 271.05 51.5524 271.825 49.3774C271.875 49.2024 272.05 49.1024 272.225 49.1024H274.3C274.425 49.1024 274.55 49.1524 274.625 49.2774C274.7 49.3774 274.725 49.5274 274.7 49.6524C274.225 51.4274 273.225 52.8774 271.775 53.9774C270.3 55.0274 268.55 55.5774 266.55 55.5774ZM266.55 39.7024C264.3 39.7024 262.425 40.4274 261 41.8274C259.575 43.2274 258.875 45.0524 258.875 47.2024C258.875 49.3774 259.6 51.2024 261 52.6024C262.45 54.0274 264.25 54.7024 266.55 54.7024C268.375 54.7024 269.975 54.2274 271.275 53.2524C272.425 52.4024 273.25 51.2774 273.725 49.9274H272.5C271.55 52.2274 269.275 53.6524 266.55 53.6524C264.675 53.6524 263.1 53.0274 261.9 51.8274C260.7 50.6274 260.1 49.0774 260.1 47.2024C260.1 45.3274 260.7 43.7774 261.9 42.5774C263.125 41.3524 264.675 40.7524 266.55 40.7524C269.3 40.7524 271.55 42.1774 272.5 44.4774H273.7C273.225 43.1274 272.4 42.0024 271.25 41.1774C269.95 40.2024 268.375 39.7024 266.55 39.7024Z" fill="#595A5C"/>
<path d="M278.7 46.8774V54.7524H276.65V33.1024H278.7V42.5024H278.75C279.75 40.4524 281.8 39.3024 284.4 39.3024C286.5 39.3024 288.25 39.9524 289.55 41.2524C290.85 42.5274 291.525 44.4274 291.525 46.9024V54.7774H289.5V46.8774C289.5 43.2274 287.425 41.1774 284.1 41.1774C280.8 41.1774 278.7 43.2524 278.7 46.8774Z" fill="#595A5C"/>
<path d="M291.55 55.1774H289.5C289.275 55.1774 289.075 54.9774 289.075 54.7524V46.8774C289.075 43.5274 287.25 41.6024 284.1 41.6024C280.975 41.6024 279.125 43.5774 279.125 46.8774V54.7524C279.125 54.9774 278.925 55.1774 278.7 55.1774H276.65C276.425 55.1774 276.225 54.9774 276.225 54.7524V33.1024C276.225 32.8774 276.425 32.6774 276.65 32.6774H278.7C278.925 32.6774 279.125 32.8774 279.125 33.1024V41.1524C280.325 39.6774 282.175 38.8774 284.4 38.8774C286.65 38.8774 288.475 39.5774 289.85 40.9524C291.25 42.3274 291.95 44.3274 291.95 46.9024V54.7774C291.975 54.9774 291.775 55.1774 291.55 55.1774ZM289.925 54.3274H291.125V46.8774C291.125 44.5274 290.5 42.7274 289.275 41.5274C288.05 40.3024 286.425 39.7024 284.425 39.7024C282 39.7024 280.1 40.7774 279.15 42.6774C279.075 42.8274 278.925 42.9024 278.775 42.9024H278.725C278.5 42.9024 278.3 42.7024 278.3 42.4774V33.5274H277.1V54.3274H278.3V46.8774C278.3 43.1024 280.525 40.7524 284.125 40.7524C287.775 40.7524 289.95 43.0524 289.95 46.8774V54.3274H289.925Z" fill="#595A5C"/>
<path d="M309.525 47.8775H295.475C295.75 51.0525 298.15 53.2525 301.475 53.2525C303.925 53.2525 305.65 52.3275 306.65 50.5275H308.875C307.675 53.3275 304.9 55.1275 301.475 55.1275C299.1 55.1275 297.15 54.4025 295.625 52.9025C294.125 51.4025 293.375 49.4775 293.375 47.2025C293.375 44.9275 294.125 43.0275 295.625 41.5275C297.15 40.0275 299.1 39.2775 301.475 39.2775C303.825 39.2775 305.775 40.0525 307.275 41.5275C308.775 43.0275 309.525 44.9025 309.525 47.2025V47.8775ZM295.55 46.0025V46.0525H307.425V46.0025C306.925 43.1025 304.65 41.1775 301.5 41.1775C298.325 41.1775 296.025 43.1025 295.55 46.0025Z" fill="#595A5C"/>
<path d="M301.475 55.5774C298.975 55.5774 296.925 54.7774 295.325 53.2274C293.75 51.6524 292.95 49.6274 292.95 47.2274C292.95 44.8524 293.75 42.8274 295.325 41.2524C296.95 39.6774 299 38.8774 301.475 38.8774C303.95 38.8774 306 39.6774 307.575 41.2524C309.15 42.8274 309.95 44.8524 309.95 47.2274V47.9024C309.95 48.1274 309.75 48.3274 309.525 48.3274H295.95C296.4 51.0524 298.55 52.8524 301.475 52.8524C303.75 52.8524 305.375 52.0024 306.3 50.3524C306.375 50.2274 306.525 50.1274 306.675 50.1274H308.9C309.05 50.1274 309.175 50.2024 309.25 50.3274C309.325 50.4524 309.35 50.6024 309.275 50.7274C308.025 53.7024 305.025 55.5774 301.475 55.5774ZM301.475 39.7024C299.225 39.7024 297.35 40.4274 295.925 41.8274C294.5 43.2274 293.8 45.0524 293.8 47.2024C293.8 49.3774 294.525 51.2024 295.925 52.6024C297.375 54.0274 299.175 54.7024 301.475 54.7024C304.425 54.7024 306.95 53.2774 308.225 50.9524H306.9C305.8 52.7524 303.975 53.6774 301.475 53.6774C297.975 53.6774 295.35 51.3024 295.05 47.9274C295.05 47.8024 295.075 47.7024 295.15 47.6024C295.225 47.5274 295.35 47.4774 295.45 47.4774H309.075V47.2274C309.075 45.0774 308.35 43.2774 306.95 41.8524C305.575 40.4274 303.725 39.7024 301.475 39.7024ZM307.4 46.4774H295.525C295.3 46.4774 295.1 46.2774 295.1 46.0524V46.0024C295.1 45.9774 295.1 45.9524 295.1 45.9274C295.625 42.7774 298.125 40.7524 301.475 40.7524C304.8 40.7524 307.275 42.7774 307.8 45.9274C307.8 45.9524 307.8 45.9774 307.8 46.0024V46.0524C307.825 46.3024 307.625 46.4774 307.4 46.4774ZM296.05 45.6274H306.9C306.3 43.1524 304.225 41.6024 301.5 41.6024C298.75 41.6024 296.65 43.1774 296.05 45.6274Z" fill="#595A5C"/>
<path d="M324.025 45.9274H322V45.7024C322 42.6524 320.375 41.1524 317.7 41.1524C315.025 41.1524 313.4 42.6524 313.4 45.7024V54.7274H311.35V45.7274C311.35 41.5524 313.825 39.3024 317.7 39.3024C321.575 39.3024 324.025 41.5274 324.025 45.7774V45.9274V45.9274Z" fill="#595A5C"/>
<path d="M313.4 55.1774H311.35C311.125 55.1774 310.925 54.9774 310.925 54.7524V45.7274C310.925 41.4274 313.45 38.8774 317.7 38.8774C321.925 38.8774 324.425 41.4524 324.425 45.7524V45.9274C324.425 46.1524 324.225 46.3524 324 46.3524H321.975C321.75 46.3524 321.55 46.1524 321.55 45.9274V45.7024C321.55 43.0024 320.2 41.5774 317.675 41.5774C315.15 41.5774 313.8 43.0024 313.8 45.7024V54.7274C313.825 54.9774 313.65 55.1774 313.4 55.1774ZM311.8 54.3274H313V45.7274C313 42.5774 314.725 40.7524 317.725 40.7524C320.65 40.7524 322.375 42.4774 322.45 45.5024H323.625C323.55 41.7524 321.45 39.7024 317.725 39.7024C313.95 39.7024 311.8 41.9024 311.8 45.7274V54.3274V54.3274Z" fill="#595A5C"/>
</g>
<path d="M44.25 24.3L32.7375 17.55C30.375 16.1625 27.45 17.85 27.45 20.5875V34.125C27.45 36.8625 30.4125 38.55 32.7375 37.1625L44.25 30.4125C46.575 28.9875 46.575 25.65 44.25 24.3Z" fill="#5FA8DC"/>
<path d="M31.875 35.6625L34.5 34.125L37.95 32.1C38.625 31.725 38.6625 30.75 38.025 30.3L37.35 29.8125L31.3875 25.4625V22.125C31.3875 21.7875 31.7625 21.5625 32.025 21.75L40.9125 26.9625C41.2125 27.15 41.2125 27.525 40.9125 27.7125L39.75 28.3875V31.0125L39.7875 30.975L43.35 28.875C44.175 28.3875 44.25 27.6375 44.25 27.3C44.25 27 44.175 26.2125 43.35 25.725L31.875 18.975C31.05 18.4875 30.3375 18.7875 30.0375 18.975C29.775 19.125 29.1375 19.6125 29.1375 20.55V25.6875V27.0375L31.5 28.7625L34.9125 31.2375L33.4875 32.0625L32.0625 32.8875C31.7625 33.075 31.425 32.85 31.425 32.5125V31.05L29.175 29.4V34.05C29.175 34.9875 29.8125 35.475 30.075 35.625C30.3375 35.8125 31.05 36.15 31.875 35.6625Z" fill="white"/>
<path d="M34.6125 4.65001C35.8875 4.65001 37.1625 4.76251 38.4375 4.98751C50.7375 7.08751 59.0625 18.7875 57 31.0875C56.1 36.4125 53.325 41.2125 49.2 44.6625C45.1125 48.075 39.975 49.95 34.6875 49.95C33.4125 49.95 32.1375 49.8375 30.8625 49.6125C18.5625 47.5125 10.2375 35.8125 12.3 23.5125C13.2 18.1875 15.975 13.3875 20.1 9.93751C24.1875 6.52501 29.325 4.65001 34.6125 4.65001ZM34.6125 2.13751C22.5375 2.13751 11.8875 10.8375 9.78752 23.1375C7.46252 36.8625 16.725 49.875 30.4125 52.1625C31.8375 52.3875 33.2625 52.5375 34.65 52.5375C46.725 52.5375 57.375 43.8375 59.475 31.5375C61.8 17.8125 52.5375 4.80001 38.85 2.51251C37.425 2.25001 36 2.13751 34.6125 2.13751Z" fill="#5FA8DC"/>
<path d="M43.425 8.17501C42.7875 8.06251 42.1875 8.02501 41.55 8.02501C40.35 7.35001 39.0375 6.78751 37.65 6.41251C33.075 5.17501 28.1625 6.90001 25.3875 10.7625C23.5125 13.3125 22.4625 16.3875 22.3125 19.1625C22.275 19.8375 23.175 20.1 23.55 19.5375C24.675 17.775 26.7 15.15 29.8875 13.0125C30.1875 12.7875 30.525 12.6 30.8625 12.45C30.675 12.7125 30.6 12.975 30.5625 13.275C30.5625 13.3875 30.5625 13.5 30.6 13.6125C30.525 13.65 30.45 13.6875 30.375 13.7625C27.375 15.7875 25.425 18.2625 24.3 20.025C24 20.475 23.5125 20.7375 22.9875 20.7375C22.5375 20.7375 22.125 20.55 21.825 20.25C21.525 19.95 21.375 19.5375 21.4125 19.125C21.5625 16.0875 22.725 12.8625 24.6375 10.2375C27 7.05001 30.75 5.13751 34.6875 5.13751C35.775 5.13751 36.825 5.28751 37.875 5.55001C39.8625 6.07501 41.775 7.01251 43.425 8.17501Z" fill="white"/>
<path d="M41.55 8.02501C40.9125 8.02501 40.3125 8.06251 39.675 8.17501C36.4875 8.66251 33.375 10.125 31.125 12.1875C31.05 12.2625 30.975 12.3375 30.9 12.45C30.5625 12.6375 30.2625 12.825 29.925 13.0125C26.7375 15.15 24.675 17.775 23.5875 19.5375C23.2125 20.1 22.3125 19.8375 22.35 19.1625C22.5 16.425 23.55 13.3125 25.425 10.7625C28.2375 6.93751 33.1125 5.21251 37.6875 6.41251C39.0375 6.78751 40.35 7.35001 41.55 8.02501Z" fill="#5FA8DC"/>
<path d="M21.75 30.9C21.45 31.2 21.0375 31.3875 20.5875 31.35C20.175 31.35 19.7625 31.1625 19.5 30.825C17.475 28.575 16.0125 25.4625 15.525 22.275C14.925 18.375 16.2 14.3625 19.0125 11.5875C19.7625 10.8375 20.625 10.1625 21.5625 9.63747C24.375 8.02497 27.7125 7.19997 30.7125 7.34997C31.35 7.38747 31.8375 7.76247 32.0625 8.32497C32.2875 8.88747 32.1375 9.56247 31.725 9.97497C31.6125 10.0875 31.4625 10.2 31.3125 10.275C29.8875 10.9875 27.75 12.2625 25.6875 14.2875C25.2375 14.7375 24.825 15.1875 24.4125 15.675C23.2125 17.1 22.3875 18.825 22.0125 20.6625C21.3 24.2625 21.675 27.375 22.125 29.4C22.275 30 22.125 30.525 21.75 30.9Z" fill="white"/>
<path d="M20.175 30.2625C18.3375 28.2375 16.9125 25.275 16.425 22.1625C15.675 17.475 17.925 12.7875 22.05 10.425C24.7875 8.84999 27.975 8.09999 30.7125 8.24999C31.3875 8.28749 31.575 9.22499 30.975 9.52499C29.1 10.4625 26.2875 12.1875 23.8125 15.15C22.5375 16.6875 21.6375 18.5625 21.225 20.55C20.475 24.3 20.8875 27.6 21.3375 29.6625C21.45 30.3375 20.625 30.75 20.175 30.2625Z" fill="#5FA8DC"/>
<path d="M20.175 30.2625C18.3375 28.2375 16.9125 25.275 16.425 22.1625C15.675 17.475 17.925 12.7875 22.05 10.425C24.7875 8.84999 27.975 8.09999 30.7125 8.24999C31.3875 8.28749 31.575 9.22499 30.975 9.52499C29.1 10.4625 26.2875 12.1875 23.8125 15.15C22.5375 16.6875 21.6375 18.5625 21.225 20.55C20.475 24.3 20.8875 27.6 21.3375 29.6625C21.45 30.3375 20.625 30.75 20.175 30.2625Z" fill="#5FA8DC"/>
<path d="M28.05 38.9625C28.05 39.4125 27.8625 39.825 27.5625 40.125C27.2625 40.425 26.85 40.575 26.4375 40.5375C23.4 40.3875 20.175 39.225 17.55 37.3125C14.3625 34.9875 12.45 31.2375 12.45 27.3C12.45 26.2125 12.6 25.1625 12.8625 24.1125C13.6875 21 15.4875 18.0375 17.7375 16.0125C18.1875 15.6 18.825 15.4875 19.3875 15.75C19.95 16.0125 20.325 16.575 20.325 17.175C20.325 17.3625 20.2875 17.5125 20.25 17.7C19.725 19.2 19.125 21.6375 19.125 24.525C19.125 25.1625 19.1625 25.7625 19.2 26.4C19.3875 28.275 20.025 30.075 21.0375 31.6125C23.0625 34.65 25.575 36.6 27.3 37.725C27.7875 37.95 28.05 38.4375 28.05 38.9625Z" fill="white"/>
<path d="M26.475 39.6376C23.7375 39.4876 20.625 38.4376 18.075 36.5626C14.25 33.7876 12.525 28.9126 13.7625 24.3001C14.5875 21.2626 16.3125 18.4876 18.375 16.6501C18.9 16.2001 19.65 16.7251 19.425 17.3626C18.75 19.3501 18 22.6126 18.3375 26.4376C18.525 28.4626 19.2 30.3751 20.325 32.0626C22.4625 35.2501 25.0875 37.3126 26.85 38.4001C27.45 38.7751 27.15 39.6751 26.475 39.6376Z" fill="#5FA8DC"/>
<path d="M26.475 39.6376C23.7375 39.4876 20.625 38.4376 18.075 36.5626C14.25 33.7876 12.525 28.9126 13.7625 24.3001C14.5875 21.2626 16.3125 18.4876 18.375 16.6501C18.9 16.2001 19.65 16.7251 19.425 17.3626C18.75 19.3501 18 22.6126 18.3375 26.4376C18.525 28.4626 19.2 30.3751 20.325 32.0626C22.4625 35.2501 25.0875 37.3126 26.85 38.4001C27.45 38.7751 27.15 39.6751 26.475 39.6376Z" fill="#5FA8DC"/>
<path d="M38.25 40.2C38.55 40.5 38.7375 40.9125 38.7 41.3625C38.7 41.775 38.5125 42.1875 38.175 42.45C35.925 44.475 32.8125 45.9375 29.625 46.425C25.725 47.025 21.7125 45.75 18.9375 42.9375C18.1875 42.1875 17.5125 41.325 16.9875 40.3875C15.375 37.575 14.55 34.2375 14.7 31.2375C14.7375 30.6 15.1125 30.1125 15.675 29.8875C16.2375 29.6625 16.9125 29.8125 17.325 30.225C17.4375 30.3375 17.55 30.4875 17.625 30.6375C18.3375 32.0625 19.6125 34.2 21.6375 36.2625C22.0875 36.7125 22.5375 37.125 23.025 37.5375C24.45 38.7375 26.175 39.5625 28.0125 39.9375C31.6125 40.65 34.725 40.275 36.75 39.825C37.3125 39.675 37.875 39.825 38.25 40.2Z" fill="white"/>
<path d="M37.575 41.8126C35.55 43.6501 32.5875 45.0751 29.475 45.5626C24.7875 46.3126 20.1 44.0626 17.7375 39.9376C16.1625 37.2001 15.4125 34.0126 15.5625 31.2751C15.6 30.6001 16.5375 30.4126 16.8375 31.0126C17.775 32.8876 19.5 35.7001 22.4625 38.1751C24 39.4501 25.875 40.3501 27.8625 40.7626C31.6125 41.5126 34.9125 41.1001 36.975 40.6501C37.65 40.5376 38.1 41.3626 37.575 41.8126Z" fill="#5FA8DC"/>
<path d="M37.575 41.8126C35.55 43.6501 32.5875 45.0751 29.475 45.5626C24.7875 46.3126 20.1 44.0626 17.7375 39.9376C16.1625 37.2001 15.4125 34.0126 15.5625 31.2751C15.6 30.6001 16.5375 30.4126 16.8375 31.0126C17.775 32.8876 19.5 35.7001 22.4625 38.1751C24 39.4501 25.875 40.3501 27.8625 40.7626C31.6125 41.5126 34.9125 41.1001 36.975 40.6501C37.65 40.5376 38.1 41.3626 37.575 41.8126Z" fill="#5FA8DC"/>
<path d="M34.6125 49.5C33.525 49.5 32.475 49.35 31.425 49.0875C28.3125 48.2625 25.35 46.4625 23.325 44.2125C22.9125 43.7625 22.8 43.125 23.0625 42.5625C23.325 42 23.8875 41.625 24.4875 41.625C24.675 41.625 24.825 41.6625 25.0125 41.7C26.5125 42.225 28.95 42.825 31.8375 42.825C32.475 42.825 33.075 42.7875 33.7125 42.75C35.5875 42.5625 37.3875 41.925 38.925 40.9125C41.9625 38.8875 43.9125 36.375 45.0375 34.65C45.3375 34.2 45.825 33.9375 46.35 33.9375C46.8 33.9375 47.2125 34.125 47.5125 34.425C47.8125 34.725 47.9625 35.1375 47.925 35.55C47.775 38.5875 46.6125 41.8125 44.7 44.4375C42.3 47.5875 38.55 49.5 34.6125 49.5Z" fill="white"/>
<path d="M46.9875 35.475C46.8375 38.2125 45.7875 41.325 43.9125 43.875C41.1 47.7 36.225 49.425 31.65 48.225C28.6125 47.4 25.8375 45.675 24 43.6125C23.55 43.0875 24.075 42.3375 24.7125 42.5625C26.7 43.2375 29.925 43.9875 33.75 43.65C35.775 43.4625 37.6875 42.7875 39.375 41.6625C42.5625 39.525 44.625 36.9 45.7125 35.1375C46.125 34.5375 47.025 34.8 46.9875 35.475Z" fill="#5FA8DC"/>
<path d="M50.2875 43.05C49.5375 43.8 48.675 44.475 47.7375 45C44.925 46.6125 41.5875 47.4375 38.5875 47.2875C37.95 47.25 37.4625 46.875 37.2375 46.3125C37.0125 45.75 37.1625 45.075 37.575 44.6625C37.6875 44.55 37.8375 44.4375 37.9875 44.3625C39.4125 43.65 41.55 42.375 43.6125 40.35C44.0625 39.9 44.475 39.45 44.8875 38.9625C46.0875 37.5375 46.9125 35.8125 47.2875 33.975C48 30.375 47.625 27.2625 47.175 25.2375C47.0625 24.7125 47.2125 24.1875 47.5875 23.775C47.8875 23.475 48.3 23.2875 48.75 23.325C49.1625 23.325 49.575 23.5125 49.8375 23.85C51.8625 26.1 53.325 29.2125 53.8125 32.4C54.4125 36.225 53.1 40.2375 50.2875 43.05Z" fill="white"/>
<path d="M49.125 24.375C50.9625 26.4 52.3875 29.3625 52.875 32.475C53.625 37.1625 51.375 41.85 47.25 44.2125C44.5125 45.7875 41.325 46.5375 38.5875 46.3875C37.9125 46.35 37.725 45.4125 38.325 45.1125C40.2 44.175 43.0125 42.45 45.4875 39.4875C46.7625 37.95 47.6625 36.075 48.075 34.0875C48.825 30.3375 48.4125 27.0375 47.9625 24.975C47.85 24.3375 48.675 23.8875 49.125 24.375Z" fill="#5FA8DC"/>
<path d="M56.85 27.375C56.85 28.4625 56.7 29.5125 56.4375 30.5625C55.6125 33.675 53.8125 36.6375 51.5625 38.6625C51.1125 39.075 50.475 39.1875 49.9125 38.925C49.35 38.6625 48.975 38.1 48.975 37.5C48.975 37.3125 49.0125 37.1625 49.05 36.975C49.575 35.475 50.175 33.0375 50.175 30.15C50.175 29.5125 50.1375 28.9125 50.1 28.275C49.9125 26.4 49.275 24.6 48.2625 23.0625C46.2375 20.025 43.725 18.075 42 16.95C41.55 16.65 41.2875 16.1625 41.2875 15.6375C41.2875 15.1875 41.475 14.775 41.775 14.475C42.075 14.175 42.4875 14.025 42.9 14.0625C45.9375 14.2125 49.1625 15.375 51.7875 17.2875C54.9375 19.65 56.85 23.4 56.85 27.375Z" fill="white"/>
<path d="M42.825 15C45.5625 15.15 48.675 16.2 51.225 18.075C55.05 20.8875 56.775 25.7625 55.575 30.3375C54.75 33.375 53.025 36.15 50.9625 37.9875C50.4375 38.4375 49.6875 37.9125 49.9125 37.275C50.5875 35.2875 51.3375 32.0625 51 28.2375C50.8125 26.2125 50.1375 24.3 49.0125 22.6125C46.875 19.425 44.25 17.3625 42.4875 16.275C41.85 15.8625 42.15 14.9625 42.825 15Z" fill="#5FA8DC"/>
<path d="M54.6 23.4C54.5625 24.0375 54.1875 24.525 53.625 24.75C53.0625 24.975 52.3875 24.825 51.975 24.4125C51.8625 24.3 51.75 24.15 51.675 24C50.9625 22.575 49.6875 20.4375 47.6625 18.375C47.2125 17.925 46.7625 17.5125 46.275 17.1C44.85 15.9 43.125 15.075 41.2875 14.7C37.6875 13.9875 34.575 14.3625 32.55 14.8125C32.025 14.925 31.5 14.775 31.125 14.4C30.9 14.175 30.75 13.875 30.675 13.575C30.6375 13.4625 30.6375 13.35 30.6375 13.2375C30.6375 12.9375 30.75 12.6375 30.9375 12.4125C31.0125 12.3375 31.0875 12.225 31.1625 12.15C33.4125 10.125 36.525 8.66252 39.7125 8.17502C40.35 8.06252 40.95 8.02502 41.5875 8.02502C42.225 8.02502 42.8625 8.06252 43.4625 8.17502C46.05 8.55002 48.4875 9.78752 50.4 11.6625C51.15 12.4125 51.825 13.275 52.35 14.2125C53.9625 17.025 54.7875 20.3625 54.6 23.4Z" fill="white"/>
<path d="M31.725 12.825C33.75 10.9875 36.7125 9.56253 39.825 9.07503C44.5125 8.32503 49.2 10.575 51.5625 14.7C53.1375 17.4375 53.8875 20.625 53.7375 23.3625C53.7 24.0375 52.7625 24.225 52.4625 23.625C51.525 21.75 49.8 18.9375 46.8375 16.4625C45.3 15.1875 43.425 14.2875 41.4375 13.875C37.6875 13.125 34.3875 13.5375 32.325 13.9875C31.65 14.1 31.2 13.275 31.725 12.825Z" fill="#5FA8DC"/>
<path d="M45.975 10.425C45.675 10.0875 45.3375 9.75003 45 9.45003C44.5125 9.00003 43.9875 8.58752 43.425 8.17502C42.7875 8.06252 42.1875 8.02502 41.55 8.02502C40.9125 8.02502 40.3125 8.06252 39.675 8.17502C36.4875 8.66252 33.375 10.125 31.125 12.1875C31.05 12.2625 30.975 12.3375 30.9 12.45C30.7125 12.7125 30.6375 12.975 30.6 13.275C30.6 13.3875 30.6 13.5 30.6375 13.6125C30.9375 13.425 31.2375 13.2375 31.5375 13.0875C32.8125 12.45 34.2 12.0375 35.625 11.8875C36.225 11.8125 36.8625 11.8125 37.5 11.8125C40.3875 11.8125 42.7875 12.4125 44.325 12.9375C44.475 13.0125 44.6625 13.0125 44.85 13.0125C45.45 13.0125 46.0125 12.6375 46.275 12.075C46.5 11.55 46.3875 10.9125 45.975 10.425Z" fill="white"/>
<path d="M44.5875 12.1125C42.6 11.4375 39.375 10.6875 35.55 11.025C34.95 11.1 34.3125 11.175 33.7125 11.325C32.7375 11.5875 31.7625 11.925 30.8625 12.4125C30.9375 12.3375 31.0125 12.225 31.0875 12.15C33.3375 10.125 36.45 8.66252 39.6375 8.17502C40.275 8.06252 40.875 8.02502 41.5125 8.02502C42.0375 8.32502 42.5625 8.66253 43.05 9.00003C43.875 9.60003 44.6625 10.275 45.3 11.025C45.7501 11.55 45.225 12.3 44.5875 12.1125Z" fill="#5FA8DC"/>
<path d="M44.5875 12.1125C42.6 11.4375 39.375 10.6875 35.55 11.025C34.95 11.1 34.3125 11.175 33.7125 11.325C32.7375 11.5875 31.7625 11.925 30.8625 12.4125C30.9375 12.3375 31.0125 12.225 31.0875 12.15C33.3375 10.125 36.45 8.66252 39.6375 8.17502C40.275 8.06252 40.875 8.02502 41.5125 8.02502C42.0375 8.32502 42.5625 8.66253 43.05 9.00003C43.875 9.60003 44.6625 10.275 45.3 11.025C45.7501 11.55 45.225 12.3 44.5875 12.1125Z" fill="#5FA8DC"/>
<path d="M31.275 12.225C31.275 12.225 30.7875 12.45 30.6375 12.5625C30.525 12.1875 31.3875 10.95 31.3875 10.95L34.1625 9.07504L40.9875 7.72504L41.55 8.02504L41.1375 8.40004C41.1375 8.40004 37.7625 9.15004 37.35 9.22504C36.975 9.30004 33.9375 10.5375 33.9375 10.5375L31.95 11.625L31.275 12.225Z" fill="#5FA8DC"/>
<path d="M36.4125 84.5625C36.225 84.7875 35.8875 84.75 35.6625 84.5625C35.25 84.1125 34.95 83.625 34.725 83.0625C34.3875 82.1625 33.825 80.475 33.375 78.675C33.15 77.7 32.925 76.65 32.8125 75.6375C32.4 71.9625 33 68.2875 33.525 66.4875C33.525 66.4875 30.1125 72.675 32.85 82.3875C32.9625 82.875 33.1125 83.4375 33.2625 84C33.4875 84.675 33.75 85.35 33.975 85.9125C34.5 87.2625 35.025 88.275 35.3625 88.95C35.55 89.2875 36.0375 89.2125 36.1125 88.8375C36.45 87.3 37.35 83.5875 37.35 83.5875C37.1625 83.85 36.7875 84.1875 36.4125 84.5625Z" fill="#5FA7DB"/>
<path d="M35.2875 59.7C34.575 58.9125 33.3 59.1 32.85 60.075C31.6875 62.775 31.275 65.6625 31.2 69.375C31.275 69.225 32.2125 64.2375 33.45 62.4375C33.675 62.1375 34.125 62.2125 34.2375 62.5875C34.575 63.9375 35.1 66.0375 35.25 70.3125C35.55 78.45 35.25 79.7625 35.25 79.7625C35.25 79.7625 36.1125 78.375 36.3375 69.7125C36.3375 69.3375 36.7875 69.1875 37.05 69.45C37.8 70.275 38.1 72.15 38.2125 75.45C38.3625 80.0625 38.025 81.9 37.95 82.2C38.5875 79.875 39.1125 77.2875 39.375 74.4375C40.05 67.2 37.3875 62.0625 35.2875 59.7Z" fill="#5FA7DB"/>
<path d="M34.2376 57.3C34.9624 57.3 35.5501 56.7124 35.5501 55.9875C35.5501 55.2626 34.9624 54.675 34.2376 54.675C33.5127 54.675 32.925 55.2626 32.925 55.9875C32.925 56.7124 33.5127 57.3 34.2376 57.3Z" fill="#5FA7DB"/>
<path d="M17.8875 50.5875C18.6124 50.5875 19.2 49.9999 19.2 49.275C19.2 48.5501 18.6124 47.9625 17.8875 47.9625C17.1626 47.9625 16.575 48.5501 16.575 49.275C16.575 49.9999 17.1626 50.5875 17.8875 50.5875Z" fill="#5FA7DB"/>
<path d="M19.0875 67.425C19.0875 67.425 21.0375 59.4375 18.375 52.65C18.1875 52.2 17.5875 52.2 17.4 52.6125C16.65 54.3 15.4125 58.2375 15.825 64.8C16.3875 74.025 13.0875 81.7125 13.0875 81.7125C13.0875 81.7125 22.6875 75.225 22.6875 66.075C22.6875 61.4625 21.975 58.7625 21.5625 58.425C21.5625 58.425 23.3625 69.1125 16.5 74.55C16.275 74.7 15.9375 74.55 16.0125 74.2875C16.3875 72.8625 16.5 66.075 18.225 64.0875C18.4125 63.8625 18.75 63.975 18.825 64.2375C18.975 64.95 19.275 66.3 19.0875 67.425Z" fill="#5FA7DB"/>
<path d="M50.5875 50.5875C51.3124 50.5875 51.9 49.9999 51.9 49.275C51.9 48.5501 51.3124 47.9625 50.5875 47.9625C49.8627 47.9625 49.275 48.5501 49.275 49.275C49.275 49.9999 49.8627 50.5875 50.5875 50.5875Z" fill="#5FA7DB"/>
<path d="M49.3875 67.425C49.3875 67.425 47.4375 59.4375 50.1 52.65C50.2875 52.2 50.8875 52.2 51.075 52.6125C51.825 54.3 53.0625 58.2375 52.65 64.8C52.0875 74.025 55.3875 81.7125 55.3875 81.7125C55.3875 81.7125 45.7875 75.225 45.7875 66.075C45.7875 61.4625 46.5 58.7625 46.9125 58.425C46.9125 58.425 45.1125 69.1125 51.975 74.55C52.2 74.7 52.5375 74.55 52.4625 74.2875C52.0875 72.8625 51.975 66.075 50.25 64.0875C50.0625 63.8625 49.725 63.975 49.65 64.2375C49.5 64.95 49.2 66.3 49.3875 67.425Z" fill="#5FA7DB"/>
<defs>
<clipPath id="clip0_1410:173">
<rect width="257.975" height="45" fill="white" transform="translate(66 22)"/>
</clipPath>
</defs>
</svg>
