<svg width="70" height="56" viewBox="0 0 70 56" fill="none" xmlns="http://www.w3.org/2000/svg">
<path d="M58.7337 51.6349C58.2318 51.3039 57.6793 51.0686 57.1555 50.7744C56.8162 50.5831 56.4545 50.414 56.1601 50.1712C55.6583 49.7594 55.7618 48.9503 56.2856 48.5973C57.0378 48.0972 58.2836 48.3766 58.4164 49.399C58.4164 49.421 58.4383 49.4358 58.4608 49.4358H59.5962C59.626 49.4358 59.648 49.4137 59.6406 49.3843C59.5816 48.6782 59.3087 48.0898 58.8074 47.7147C58.328 47.3543 57.7823 47.1631 57.1994 47.1631C54.1983 47.1631 53.9254 50.3331 55.5402 51.3334C55.7247 51.451 57.3102 52.2453 57.8711 52.591C58.431 52.9367 58.6082 53.5692 58.3646 54.0694C58.1435 54.5254 57.5685 54.8417 56.9934 54.8049C56.3661 54.7681 55.8795 54.4298 55.7101 53.9003C55.6803 53.8047 55.6656 53.6207 55.6656 53.5399C55.6656 53.5178 55.6437 53.4957 55.6212 53.4957H54.3901C54.3682 53.4957 54.3462 53.5178 54.3462 53.5399C54.3462 54.4298 54.5673 54.9226 55.1716 55.3713C55.7394 55.7978 56.3588 55.9744 57.0007 55.9744C58.6819 55.9744 59.5523 55.0255 59.7285 54.04C59.8837 53.0765 59.5962 52.2086 58.7337 51.6349Z" fill="#161616"/>
<path d="M5.26502 47.3247H4.71936H4.12207C4.0999 47.3247 4.08516 47.3394 4.07779 47.3541L3.06762 50.6786C3.05283 50.7228 2.99386 50.7228 2.97912 50.6786L1.96885 47.3541C1.96148 47.3321 1.94673 47.3247 1.92457 47.3247H1.32737H0.781622H0.0442742C0.0221122 47.3247 0 47.3468 0 47.3688V55.8566C0 55.8786 0.0221122 55.9006 0.0442742 55.9006H1.27568C1.29784 55.9006 1.31995 55.8786 1.31995 55.8566V49.4062C1.31995 49.3547 1.39371 49.3473 1.40845 49.3915L2.42605 52.738L2.49976 52.9734C2.50713 52.9954 2.52192 53.0028 2.54403 53.0028H3.48791C3.50998 53.0028 3.52477 52.9881 3.53214 52.9734L3.60585 52.738L4.62349 49.3915C4.63823 49.34 4.71199 49.3547 4.71199 49.4062V55.8566C4.71199 55.8786 4.73411 55.9006 4.75617 55.9006H5.98767C6.00978 55.9006 6.0319 55.8786 6.0319 55.8566V47.3688C6.0319 47.3468 6.00978 47.3247 5.98767 47.3247H5.26502Z" fill="#161616"/>
<path d="M39.878 47.3247C39.8561 47.3247 39.8414 47.3394 39.8341 47.3541L38.8241 50.6786C38.8095 50.7228 38.7504 50.7228 38.7358 50.6786L37.7253 47.3541C37.718 47.3321 37.7028 47.3247 37.6809 47.3247H35.8079C35.7859 47.3247 35.7634 47.3468 35.7634 47.3688V55.8566C35.7634 55.8786 35.7859 55.9006 35.8079 55.9006H37.0394C37.0619 55.9006 37.0839 55.8786 37.0839 55.8566V49.4062C37.0839 49.3547 37.1576 49.3473 37.1722 49.3915L38.1895 52.738L38.2632 52.9734C38.2706 52.9954 38.2857 53.0028 38.3077 53.0028H39.2517C39.2737 53.0028 39.2883 52.9881 39.2957 52.9734L39.3694 52.738L40.3872 49.3915C40.4023 49.34 40.476 49.3547 40.476 49.4062V55.8566C40.476 55.8786 40.498 55.9006 40.5199 55.9006H41.7515C41.7735 55.9006 41.7955 55.8786 41.7955 55.8566V47.3688C41.7955 47.3468 41.7735 47.3247 41.7515 47.3247H39.878Z" fill="#161616"/>
<path d="M23.9947 47.3247H21.7014H20.4701H18.1768C18.1547 47.3247 18.1326 47.3468 18.1326 47.3688V48.428C18.1326 48.45 18.1547 48.4721 18.1768 48.4721H20.4259V55.8566C20.4259 55.8786 20.4479 55.9006 20.4701 55.9006H21.7014C21.7238 55.9006 21.7458 55.8786 21.7458 55.8566V48.4721H23.9947C24.0171 48.4721 24.0391 48.45 24.0391 48.428V47.3688C24.0391 47.3468 24.0245 47.3247 23.9947 47.3247Z" fill="#161616"/>
<path d="M31.2582 55.9005H32.3785C32.4083 55.9005 32.4303 55.8711 32.4229 55.8417L30.1076 47.3246C30.1003 47.3025 30.0857 47.2952 30.0632 47.2952H29.6356H28.8839H28.4558C28.4338 47.2952 28.4191 47.3099 28.4118 47.3246L26.0965 55.8417C26.0887 55.8711 26.1112 55.9005 26.1405 55.9005H27.2613C27.2837 55.9005 27.2984 55.8858 27.3057 55.8711L27.9769 53.3924C27.9842 53.3704 27.9988 53.363 28.0208 53.363H30.4987C30.5211 53.363 30.5358 53.3777 30.5431 53.3924L31.2138 55.8711C31.2211 55.8858 31.2436 55.9005 31.2582 55.9005ZM28.3157 52.1495L29.2153 48.8323C29.2304 48.7882 29.289 48.7882 29.3042 48.8323L30.2038 52.1495C30.2111 52.1789 30.1887 52.2083 30.1594 52.2083H28.3601C28.3308 52.2083 28.3083 52.1789 28.3157 52.1495Z" fill="#161616"/>
<path d="M50.3718 55.9005H51.4921C51.5219 55.9005 51.5439 55.8711 51.5365 55.8417L49.2212 47.3246C49.2139 47.3025 49.1988 47.2952 49.1768 47.2952H48.7492H47.9975H47.5694C47.5474 47.2952 47.5323 47.3099 47.5249 47.3246L45.2096 55.8417C45.2023 55.8711 45.2248 55.9005 45.2541 55.9005H46.3753C46.3973 55.9005 46.412 55.8858 46.4193 55.8711L47.0905 53.3924C47.0978 53.3704 47.1125 53.363 47.1344 53.363H49.6123C49.6342 53.363 49.6494 53.3777 49.6567 53.3924L50.3274 55.8711C50.3347 55.8858 50.3494 55.9005 50.3718 55.9005ZM47.4293 52.1495L48.3289 48.8323C48.3436 48.7882 48.4026 48.7882 48.4173 48.8323L49.3169 52.1495C49.3242 52.1789 49.3023 52.2083 49.273 52.2083H47.4737C47.4439 52.2083 47.4219 52.1789 47.4293 52.1495Z" fill="#161616"/>
<path d="M11.0314 54.6426V52.0095C11.0314 51.9875 11.0535 51.9654 11.0756 51.9654H14.357C14.3791 51.9654 14.4013 51.9434 14.4013 51.9213V50.8622C14.4013 50.8402 14.3791 50.818 14.357 50.818H11.0756C11.0535 50.818 11.0314 50.796 11.0314 50.7739V48.5233C11.0314 48.5012 11.0535 48.4791 11.0756 48.4791H14.8069C14.829 48.4791 14.8511 48.4571 14.8511 48.4351V47.3759C14.8511 47.3539 14.829 47.3318 14.8069 47.3318H11.0314H9.7557C9.73354 47.3318 9.71143 47.3539 9.71143 47.3759V48.4791V50.8254V51.9728V54.6941V55.8562C9.71143 55.8783 9.73354 55.9003 9.7557 55.9003H11.0314H14.9617C14.9838 55.9003 15.006 55.8783 15.006 55.8562V54.7383C15.006 54.7162 14.9838 54.6941 14.9617 54.6941H11.0682C11.0461 54.6868 11.0314 54.672 11.0314 54.6426Z" fill="#161616"/>
<path d="M69.986 55.8268L65.7239 51.4358C65.7088 51.4211 65.7088 51.3918 65.7239 51.377L69.5588 47.4054C69.5881 47.3759 69.5662 47.3318 69.5291 47.3318H67.9587C67.9435 47.3318 67.9362 47.3391 67.9289 47.3465L64.6773 50.7151C64.6476 50.7445 64.6032 50.7224 64.6032 50.6857V47.3759C64.6032 47.3539 64.5812 47.3318 64.5592 47.3318H63.3271C63.3052 47.3318 63.2832 47.3539 63.2832 47.3759V55.8636C63.2832 55.8857 63.3052 55.9077 63.3271 55.9077H64.5592C64.5812 55.9077 64.6032 55.8857 64.6032 55.8636V52.1273C64.6032 52.0905 64.6549 52.0684 64.6773 52.0978L68.3638 55.893C68.3712 55.9003 68.3858 55.9077 68.3931 55.9077H69.964C69.9933 55.9003 70.0157 55.8489 69.986 55.8268Z" fill="#161616"/>
<path d="M52.1609 0.163086L36.8887 11.4634L39.7287 4.80377L52.1609 0.163086Z" fill="#E17726" stroke="#E17726" stroke-width="0.25" stroke-linecap="round" stroke-linejoin="round"/>
<path d="M16.9336 0.163086L32.0699 11.5689L29.3659 4.80376L16.9336 0.163086Z" fill="#E27625" stroke="#E27625" stroke-width="0.25" stroke-linecap="round" stroke-linejoin="round"/>
<path d="M46.6619 26.3643L42.5984 32.5719L51.2995 34.9676L53.792 26.5L46.6619 26.3643Z" fill="#E27625" stroke="#E27625" stroke-width="0.25" stroke-linecap="round" stroke-linejoin="round"/>
<path d="M15.3171 26.5L17.7945 34.9676L26.4805 32.5719L22.4321 26.3643L15.3171 26.5Z" fill="#E27625" stroke="#E27625" stroke-width="0.25" stroke-linecap="round" stroke-linejoin="round"/>
<path d="M26.0122 15.8777L23.5952 19.5239L32.2057 19.9157L31.9187 10.6494L26.0122 15.8777Z" fill="#E27625" stroke="#E27625" stroke-width="0.25" stroke-linecap="round" stroke-linejoin="round"/>
<path d="M43.0817 15.8777L37.0848 10.5439L36.8884 19.9157L45.4987 19.524L43.0817 15.8777Z" fill="#E27625" stroke="#E27625" stroke-width="0.25" stroke-linecap="round" stroke-linejoin="round"/>
<path d="M26.4805 32.5723L31.692 30.0561L27.2056 26.5605L26.4805 32.5723Z" fill="#E27625" stroke="#E27625" stroke-width="0.25" stroke-linecap="round" stroke-linejoin="round"/>
<path d="M37.4021 30.0561L42.5985 32.5723L41.8885 26.5605L37.4021 30.0561Z" fill="#E27625" stroke="#E27625" stroke-width="0.25" stroke-linecap="round" stroke-linejoin="round"/>
<path d="M42.5985 32.5728L37.4021 30.0566L37.825 33.4316L37.7797 34.863L42.5985 32.5728Z" fill="#D5BFB2" stroke="#D5BFB2" stroke-width="0.25" stroke-linecap="round" stroke-linejoin="round"/>
<path d="M26.4805 32.5728L31.3145 34.863L31.2842 33.4316L31.692 30.0566L26.4805 32.5728Z" fill="#D5BFB2" stroke="#D5BFB2" stroke-width="0.25" stroke-linecap="round" stroke-linejoin="round"/>
<path d="M31.405 24.3309L27.0847 23.0653L30.1361 21.6641L31.405 24.3309Z" fill="#233447" stroke="#233447" stroke-width="0.25" stroke-linecap="round" stroke-linejoin="round"/>
<path d="M37.6892 24.3309L38.9581 21.6641L42.0246 23.0653L37.6892 24.3309Z" fill="#233447" stroke="#233447" stroke-width="0.25" stroke-linecap="round" stroke-linejoin="round"/>
<path d="M26.4805 32.5719L27.2359 26.3643L22.4321 26.5L26.4805 32.5719Z" fill="#CC6228" stroke="#CC6228" stroke-width="0.25" stroke-linecap="round" stroke-linejoin="round"/>
<path d="M41.8582 26.3643L42.5984 32.5719L46.6619 26.5L41.8582 26.3643Z" fill="#CC6228" stroke="#CC6228" stroke-width="0.25" stroke-linecap="round" stroke-linejoin="round"/>
<path d="M45.4987 19.5244L36.8884 19.9162L37.689 24.3309L38.9579 21.6639L42.0244 23.0652L45.4987 19.5244Z" fill="#CC6228" stroke="#CC6228" stroke-width="0.25" stroke-linecap="round" stroke-linejoin="round"/>
<path d="M27.0847 23.0652L30.1361 21.6639L31.4051 24.3309L32.2057 19.9162L23.5952 19.5244L27.0847 23.0652Z" fill="#CC6228" stroke="#CC6228" stroke-width="0.25" stroke-linecap="round" stroke-linejoin="round"/>
<path d="M23.5955 19.5244L27.2059 26.5608L27.0849 23.0652L23.5955 19.5244Z" fill="#E27525" stroke="#E27525" stroke-width="0.25" stroke-linecap="round" stroke-linejoin="round"/>
<path d="M42.0246 23.0652L41.8887 26.5608L45.4991 19.5244L42.0246 23.0652Z" fill="#E27525" stroke="#E27525" stroke-width="0.25" stroke-linecap="round" stroke-linejoin="round"/>
<path d="M32.206 19.916L31.4053 24.3308L32.4174 29.5439L32.644 22.6733L32.206 19.916Z" fill="#E27525" stroke="#E27525" stroke-width="0.25" stroke-linecap="round" stroke-linejoin="round"/>
<path d="M36.8886 19.916L36.4656 22.6583L36.6771 29.5439L37.6892 24.3308L36.8886 19.916Z" fill="#E27525" stroke="#E27525" stroke-width="0.25" stroke-linecap="round" stroke-linejoin="round"/>
<path d="M37.6891 24.3301L36.677 29.5433L37.4022 30.0556L41.8887 26.56L42.0246 23.0645L37.6891 24.3301Z" fill="#F5841F" stroke="#F5841F" stroke-width="0.25" stroke-linecap="round" stroke-linejoin="round"/>
<path d="M27.0847 23.0645L27.2056 26.56L31.692 30.0556L32.4171 29.5433L31.405 24.3301L27.0847 23.0645Z" fill="#F5841F" stroke="#F5841F" stroke-width="0.25" stroke-linecap="round" stroke-linejoin="round"/>
<path d="M37.7798 34.8625L37.825 33.4311L37.4324 33.0996H31.6619L31.2842 33.4311L31.3145 34.8625L26.4805 32.5723L28.1724 33.9584L31.6014 36.324H37.4776L40.9218 33.9584L42.5985 32.5723L37.7798 34.8625Z" fill="#C0AC9D" stroke="#C0AC9D" stroke-width="0.25" stroke-linecap="round" stroke-linejoin="round"/>
<path d="M37.4021 30.0562L36.677 29.5439H32.4171L31.6921 30.0562L31.2842 33.4313L31.6619 33.0998H37.4324L37.8252 33.4313L37.4021 30.0562Z" fill="#161616" stroke="#161616" stroke-width="0.25" stroke-linecap="round" stroke-linejoin="round"/>
<path d="M52.8102 12.2017L54.0942 5.96393L52.1606 0.163086L37.4021 11.0868L43.0819 15.8781L51.1032 18.2135L52.8706 16.1494L52.1003 15.5918L53.3238 14.4769L52.3873 13.7537L53.6109 12.8195L52.8102 12.2017Z" fill="#763E1A" stroke="#763E1A" stroke-width="0.25" stroke-linecap="round" stroke-linejoin="round"/>
<path d="M15 5.96393L16.2991 12.2017L15.4683 12.8195L16.707 13.7537L15.7704 14.4769L16.994 15.5918L16.2236 16.1494L17.991 18.2135L26.0124 15.8781L31.6921 11.0868L16.9336 0.163086L15 5.96393Z" fill="#763E1A" stroke="#763E1A" stroke-width="0.25" stroke-linecap="round" stroke-linejoin="round"/>
<path d="M51.1034 18.2133L43.0821 15.8779L45.4991 19.5242L41.8887 26.5605L46.6622 26.5003H53.7922L51.1034 18.2133Z" fill="#F5841F" stroke="#F5841F" stroke-width="0.25" stroke-linecap="round" stroke-linejoin="round"/>
<path d="M26.0122 15.8779L17.9909 18.2133L15.3171 26.5003H22.4321L27.2055 26.5605L23.5952 19.5242L26.0122 15.8779Z" fill="#F5841F" stroke="#F5841F" stroke-width="0.25" stroke-linecap="round" stroke-linejoin="round"/>
<path d="M36.8885 19.9161L37.4021 11.0867L39.7283 4.80371H29.3657L31.6919 11.0867L32.2055 19.9161L32.4019 22.6884L32.4171 29.544H36.6769L36.6921 22.6884L36.8885 19.9161Z" fill="#F5841F" stroke="#F5841F" stroke-width="0.25" stroke-linecap="round" stroke-linejoin="round"/>
</svg>
