<?xml version="1.0" encoding="utf-8"?>
<!-- Generator: Adobe Illustrator 22.0.1, SVG Export Plug-In . SVG Version: 6.00 Build 0)  -->
<svg version="1.1" id="Layer_3" xmlns="http://www.w3.org/2000/svg" xmlns:xlink="http://www.w3.org/1999/xlink" x="0px" y="0px"
	 viewBox="0 0 1031.9 180" style="enable-background:new 0 0 1031.9 180;" xml:space="preserve">
<style type="text/css">
	.st0{fill:#5FA8DC;}
	.st1{fill:#FFFFFF;}
	.st2{fill:#595A5C;}
</style>
<g>
	<g>
		<g>
			<path class="st0" d="M169.1,66c-17.2,0-27.5,10.4-27.5,27.8v38.4h11.6V93.8c0-11.1,5.5-16.9,15.9-16.9S185,82.8,185,93.8v2.5
				h11.4V94C196.4,76.5,186.2,66,169.1,66z"/>
			<path class="st0" d="M242.2,66c-10,0-18.5,3.2-25,9.7c-6.4,6.4-9.7,14.6-9.7,24.3c0,9.8,3.3,18,9.7,24.4c6.5,6.3,14.9,9.5,25,9.5
				c14.4,0,26.5-7.6,31.7-19.8l1-2.2h-12.5l-0.5,0.8c-3.8,6.8-10.4,10.2-19.7,10.2c-12,0-20.9-7.4-22.7-18.6h57.1v-4.4
				c0-9.7-3.3-17.8-9.7-24.3C260.5,69.3,252.2,66,242.2,66z M219.9,93.6c2.4-10.2,11-16.7,22.3-16.7c11.2,0,19.8,6.5,22.2,16.7
				H219.9z"/>
			<path class="st0" d="M322.3,66c-10,0-18.5,3.2-25,9.7c-6.4,6.4-9.7,14.6-9.7,24.3c0,10.1,3.3,18.4,9.7,24.7
				c6.4,6.2,14.4,9.3,23.7,9.3c10.5,0,19.6-4.5,24.9-12v10.3h10.9v-31.9c0-10-3.3-18.3-9.7-24.8C340.9,69.2,332.5,66,322.3,66z
				 M339,116.4c-4.4,4.4-9.8,6.5-16.6,6.5c-6.8,0-12.3-2.1-16.6-6.5c-4.2-4.2-6.4-9.8-6.4-16.5c0-6.7,2.1-12.3,6.4-16.5
				c4.4-4.4,9.8-6.5,16.6-6.5c6.8,0,12.3,2.1,16.6,6.5c4.2,4.2,6.4,9.8,6.4,16.5C345.3,106.7,343.2,112.2,339,116.4z"/>
			<path class="st0" d="M438.7,66c-9.8,0-17.7,4.3-22.1,11.9C412,70.2,404.3,66,394.4,66c-16.3,0-26.5,11-26.5,28.7v37.5h11.6V94.7
				c0-11.3,5.7-17.8,15.5-17.8c9.9,0,15.8,6.6,15.8,17.8v37.5h11.6V94.7c0-11.1,5.9-17.8,15.7-17.8c9.9,0,15.5,6.5,15.5,17.8v37.5
				h11.6V94.7C465.2,77,455,66,438.7,66z"/>
			<g>
				<path class="st0" d="M117.7,71.8l-69-40.5C34.7,23.1,17,33.2,17,49.5v81.1c0,16.3,17.7,26.4,31.7,18.2l69-40.5
					C131.6,100,131.6,80,117.7,71.8z"/>
				<path class="st1" d="M43.5,139.9l15.8-9.3L80,118.5c4-2.4,4.3-8,0.5-10.8l-4-2.9l-35.7-26V58.7c0-2,2.2-3.3,3.9-2.2l53.2,31.3
					c1.7,1,1.7,3.5,0,4.5l-7,4.1v15.8l0.2-0.1l21.4-12.6c4.8-2.9,5.4-7.5,5.4-9.4c0-1.9-0.5-6.5-5.4-9.4l-69-40.5
					c-4.9-2.9-9.3-1-10.9-0.1c-1.6,0.9-5.5,3.8-5.5,9.4v30.7v8.1v0.1l14.2,10.2l20.4,14.8l-8.6,5l-8.5,5c-1.7,1-3.9-0.2-3.9-2.2
					v-8.8l-13.6-9.8v27.8c0,5.7,3.8,8.5,5.5,9.4C34.3,140.9,38.6,142.8,43.5,139.9z"/>
			</g>
		</g>
	</g>
	<g>
		<g>
			<path class="st2" d="M535.9,130.6h-57.1V50.8h8.8v71.7h48.3V130.6z"/>
			<path class="st2" d="M535.9,132.3h-57.1c-0.9,0-1.7-0.8-1.7-1.7V50.8c0-0.9,0.8-1.7,1.7-1.7h8.8c0.9,0,1.7,0.8,1.7,1.7v70h46.6
				c0.9,0,1.7,0.8,1.7,1.7v8.1C537.6,131.5,536.8,132.3,535.9,132.3z M480.5,128.9h53.7v-4.7h-46.6c-0.9,0-1.7-0.8-1.7-1.7v-70h-5.4
				V128.9z"/>
		</g>
		<g>
			<path class="st2" d="M604.8,130.6h-7.6v-14.3H597c-4,9.8-13.7,15.9-25.7,15.9c-8.8,0-16.2-2.9-22.2-8.7c-6-5.9-9-13.5-9-23.1
				c0-9.1,3.1-16.7,9-22.7c6.1-6,13.9-9,23.4-9c9.5,0,17.3,2.9,23.3,8.9c6,6,9,13.7,9,23.2V130.6z M572.5,124.6
				c7.2,0,12.9-2.3,17.4-6.8c4.5-4.5,6.7-10.4,6.7-17.3s-2.2-12.8-6.7-17.3c-4.5-4.5-10.2-6.8-17.4-6.8c-7.2,0-12.9,2.3-17.4,6.8
				s-6.7,10.4-6.7,17.3s2.2,12.8,6.7,17.3C559.6,122.3,565.3,124.6,572.5,124.6z"/>
			<path class="st2" d="M571.3,133.9c-9.2,0-17.1-3.1-23.4-9.1c-6.3-6.2-9.5-14.4-9.5-24.3c0-9.5,3.2-17.6,9.5-23.9
				c6.5-6.3,14.7-9.5,24.6-9.5c10,0,18.3,3.2,24.5,9.4c6.3,6.3,9.5,14.5,9.5,24.4v29.8c0,0.9-0.8,1.7-1.7,1.7h-7.6
				c-0.9,0-1.7-0.8-1.7-1.7v-8.2C590.3,129.6,581.5,133.9,571.3,133.9z M572.5,70.4c-9,0-16.5,2.9-22.2,8.5
				c-5.7,5.6-8.5,12.9-8.5,21.5c0,9,2.9,16.3,8.5,21.8c5.7,5.4,12.7,8.2,21,8.2c11.3,0,20.4-5.5,24.2-14.8c0.3-0.6,0.9-1,1.6-1h0.2
				c0.9,0,1.7,0.8,1.7,1.7v12.6h4.2v-28.1c0-9.1-2.8-16.2-8.5-22C589,73.3,581.6,70.4,572.5,70.4z M572.5,126.3
				c-7.5,0-13.8-2.5-18.6-7.3c-4.8-4.8-7.2-11-7.2-18.5c0-7.5,2.4-13.7,7.2-18.5c4.9-4.9,11.1-7.3,18.6-7.3c7.5,0,13.8,2.5,18.6,7.3
				c4.8,4.8,7.2,11,7.2,18.5s-2.4,13.7-7.2,18.5C586.3,123.8,580,126.3,572.5,126.3z M572.5,78c-6.7,0-12,2.1-16.2,6.3
				c-4.1,4.1-6.2,9.5-6.2,16.1c0,6.6,2.1,12,6.2,16.1c4.3,4.3,9.6,6.3,16.2,6.3c6.7,0,12-2.1,16.2-6.3c4.1-4.1,6.2-9.5,6.2-16.1
				c0-6.6-2.1-12-6.2-16.1C584.5,80.1,579.2,78,572.5,78z"/>
		</g>
		<g>
			<path class="st2" d="M665.9,70.3h8.2v31.5c0,19.5-11.6,30.4-29.8,30.4s-29.8-10.9-29.8-30.4V70.3h8.2v31.5
				c0,14.5,8.3,22.8,21.6,22.8s21.6-8.3,21.6-22.8V70.3z"/>
			<path class="st2" d="M644.3,133.9c-19.7,0-31.5-12-31.5-32.1V70.3c0-0.9,0.8-1.7,1.7-1.7h8.2c0.9,0,1.7,0.8,1.7,1.7v31.5
				c0,13.4,7.3,21.1,19.9,21.1c12.6,0,19.9-7.7,19.9-21.1V70.3c0-0.9,0.8-1.7,1.7-1.7h8.2c0.9,0,1.7,0.8,1.7,1.7v31.5
				C675.8,121.9,664,133.9,644.3,133.9z M616.3,72v29.8c0,18.2,10.2,28.7,28.1,28.7s28.1-10.5,28.1-28.7V72h-4.8v29.8
				c0,15.1-8.9,24.5-23.3,24.5c-14.4,0-23.3-9.4-23.3-24.5V72H616.3z"/>
		</g>
		<g>
			<path class="st2" d="M743.4,130.6h-8.2V99.1c0-14.6-8.3-22.8-21.6-22.8S692,84.5,692,99.1v31.5h-8.2V99.1
				c0-19.5,11.6-30.4,29.8-30.4c18.2,0,29.8,10.9,29.8,30.4V130.6z"/>
			<path class="st2" d="M743.4,132.3h-8.2c-0.9,0-1.7-0.8-1.7-1.7V99.1c0-13.4-7.3-21.1-19.9-21.1c-12.6,0-19.9,7.7-19.9,21.1v31.5
				c0,0.9-0.8,1.7-1.7,1.7h-8.2c-0.9,0-1.7-0.8-1.7-1.7V99.1c0-20.1,11.8-32.1,31.5-32.1c19.7,0,31.5,12,31.5,32.1v31.5
				C745.1,131.5,744.3,132.3,743.4,132.3z M736.9,128.9h4.8V99.1c0-18.2-10.2-28.7-28.1-28.7s-28.1,10.5-28.1,28.7v29.8h4.8V99.1
				c0-15.3,8.7-24.5,23.3-24.5c14.6,0,23.3,9.2,23.3,24.5V128.9z"/>
		</g>
		<g>
			<path class="st2" d="M805.8,91.2c-3.3-9.1-11.8-14.9-22.7-14.9c-7.2,0-12.9,2.3-17.4,6.8c-4.5,4.5-6.7,10.4-6.7,17.3
				s2.2,12.8,6.7,17.3c4.5,4.5,10.2,6.8,17.4,6.8c10.9,0,19.4-5.7,22.7-14.9h8.3c-1.8,6.7-5.5,12.2-11.1,16.3
				c-5.5,4-12.2,6.1-19.9,6.1c-9.5,0-17.3-2.9-23.4-8.9c-6-6-9-13.7-9-22.8c0-9.1,3-16.7,9-22.7c6.1-6,13.9-9,23.4-9
				c7.7,0,14.4,2.1,19.9,6.2c5.6,4,9.3,9.5,11.1,16.2H805.8z"/>
			<path class="st2" d="M783.2,133.9c-10,0-18.2-3.2-24.6-9.4c-6.3-6.3-9.5-14.4-9.5-24c0-9.5,3.2-17.6,9.5-23.9
				c6.5-6.3,14.7-9.5,24.6-9.5c8.1,0,15.1,2.2,20.9,6.6c5.8,4.2,9.7,9.9,11.7,17.1c0.1,0.5,0,1.1-0.3,1.5c-0.3,0.4-0.8,0.7-1.3,0.7
				h-8.3c-0.7,0-1.3-0.4-1.6-1.1c-3.1-8.6-11-13.8-21.1-13.8c-6.7,0-12,2.1-16.2,6.3c-4.1,4.1-6.2,9.5-6.2,16.1
				c0,6.6,2.1,12,6.2,16.1c4.3,4.3,9.6,6.3,16.2,6.3c10.1,0,18-5.1,21.1-13.8c0.2-0.7,0.9-1.1,1.6-1.1h8.3c0.5,0,1,0.2,1.3,0.7
				c0.3,0.4,0.4,1,0.3,1.5c-1.9,7.1-5.9,12.9-11.7,17.3C798.2,131.7,791.2,133.9,783.2,133.9z M783.2,70.4c-9,0-16.5,2.9-22.2,8.5
				c-5.7,5.6-8.5,12.9-8.5,21.5c0,8.7,2.9,16,8.5,21.6c5.8,5.7,13,8.4,22.2,8.4c7.3,0,13.7-1.9,18.9-5.8c4.6-3.4,7.9-7.9,9.8-13.3
				H807c-3.8,9.2-12.9,14.9-23.8,14.9c-7.5,0-13.8-2.5-18.6-7.3c-4.8-4.8-7.2-11-7.2-18.5c0-7.5,2.4-13.7,7.2-18.5
				c4.9-4.9,11.1-7.3,18.6-7.3c11,0,20,5.7,23.8,14.9h4.8c-1.9-5.4-5.2-9.9-9.8-13.2C796.8,72.4,790.5,70.4,783.2,70.4z"/>
		</g>
		<g>
			<path class="st2" d="M831.8,99.1v31.5h-8.2V44h8.2v37.6h0.2c4-8.2,12.2-12.8,22.6-12.8c8.4,0,15.4,2.6,20.6,7.8
				c5.2,5.1,7.9,12.7,7.9,22.6v31.5H875V99.1c0-14.6-8.3-22.8-21.6-22.8C840.2,76.3,831.8,84.6,831.8,99.1z"/>
			<path class="st2" d="M883.2,132.3H875c-0.9,0-1.7-0.8-1.7-1.7V99.1c0-13.4-7.3-21.1-19.9-21.1c-12.5,0-19.9,7.9-19.9,21.1v31.5
				c0,0.9-0.8,1.7-1.7,1.7h-8.2c-0.9,0-1.7-0.8-1.7-1.7V44c0-0.9,0.8-1.7,1.7-1.7h8.2c0.9,0,1.7,0.8,1.7,1.7v32.2
				c4.8-5.9,12.2-9.1,21.1-9.1c9,0,16.3,2.8,21.8,8.3c5.6,5.5,8.4,13.5,8.4,23.8v31.5C884.9,131.5,884.1,132.3,883.2,132.3z
				 M876.7,128.9h4.8V99.1c0-9.4-2.5-16.6-7.4-21.4c-4.9-4.9-11.4-7.3-19.4-7.3c-9.7,0-17.3,4.3-21.1,11.9c-0.3,0.6-0.9,0.9-1.5,0.9
				h-0.2c-0.9,0-1.7-0.8-1.7-1.7V45.7h-4.8v83.2h4.8V99.1c0-15.1,8.9-24.5,23.3-24.5c14.6,0,23.3,9.2,23.3,24.5V128.9z"/>
		</g>
		<g>
			<path class="st2" d="M955.1,103.1h-56.2c1.1,12.7,10.7,21.5,24,21.5c9.8,0,16.7-3.7,20.7-10.9h8.9c-4.8,11.2-15.9,18.4-29.6,18.4
				c-9.5,0-17.3-2.9-23.4-8.9c-6-6-9-13.7-9-22.8c0-9.1,3-16.7,9-22.7c6.1-6,13.9-9,23.4-9c9.4,0,17.2,3.1,23.2,9c6,6,9,13.5,9,22.7
				V103.1z M899.2,95.6v0.2h47.5v-0.2c-2-11.6-11.1-19.3-23.7-19.3C910.3,76.3,901.1,84,899.2,95.6z"/>
			<path class="st2" d="M922.9,133.9c-10,0-18.2-3.2-24.6-9.4c-6.3-6.3-9.5-14.4-9.5-24c0-9.5,3.2-17.6,9.5-23.9
				c6.5-6.3,14.7-9.5,24.6-9.5c9.9,0,18.1,3.2,24.4,9.5s9.5,14.4,9.5,23.9v2.7c0,0.9-0.8,1.7-1.7,1.7h-54.3
				c1.8,10.9,10.4,18.1,22.1,18.1c9.1,0,15.6-3.4,19.3-10c0.3-0.5,0.9-0.9,1.5-0.9h8.9c0.6,0,1.1,0.3,1.4,0.8s0.4,1.1,0.1,1.6
				C949.1,126.4,937.1,133.9,922.9,133.9z M922.9,70.4c-9,0-16.5,2.9-22.2,8.5c-5.7,5.6-8.5,12.9-8.5,21.5c0,8.7,2.9,16,8.5,21.6
				c5.8,5.7,13,8.4,22.2,8.4c11.8,0,21.9-5.7,27-15h-5.3c-4.4,7.2-11.7,10.9-21.7,10.9c-14,0-24.5-9.5-25.7-23
				c0-0.5,0.1-0.9,0.4-1.3c0.3-0.3,0.8-0.5,1.2-0.5h54.5v-1c0-8.6-2.9-15.8-8.5-21.5C939.3,73.3,931.9,70.4,922.9,70.4z M946.6,97.5
				h-47.5c-0.9,0-1.7-0.8-1.7-1.7v-0.2c0-0.1,0-0.2,0-0.3c2.1-12.6,12.1-20.7,25.5-20.7c13.3,0,23.2,8.1,25.3,20.7
				c0,0.1,0,0.2,0,0.3v0.2C948.3,96.8,947.5,97.5,946.6,97.5z M901.2,94.1h43.4c-2.4-9.9-10.7-16.1-21.6-16.1
				C912,78,903.6,84.3,901.2,94.1z"/>
		</g>
		<g>
			<path class="st2" d="M1013.1,95.3h-8.1v-0.9c0-12.2-6.5-18.2-17.2-18.2s-17.2,6-17.2,18.2v36.1h-8.2V94.5
				c0-16.7,9.9-25.7,25.4-25.7c15.5,0,25.3,8.9,25.3,25.9V95.3z"/>
			<path class="st2" d="M970.6,132.3h-8.2c-0.9,0-1.7-0.8-1.7-1.7V94.5c0-17.2,10.1-27.4,27.1-27.4c16.9,0,26.9,10.3,26.9,27.5v0.7
				c0,0.9-0.8,1.7-1.7,1.7h-8.1c-0.9,0-1.7-0.8-1.7-1.7v-0.9c0-10.8-5.4-16.5-15.5-16.5s-15.5,5.7-15.5,16.5v36.1
				C972.3,131.5,971.6,132.3,970.6,132.3z M964.2,128.9h4.8V94.5c0-12.6,6.9-19.9,18.9-19.9c11.7,0,18.6,6.9,18.9,19h4.7
				c-0.3-15-8.7-23.2-23.6-23.2c-15.1,0-23.7,8.8-23.7,24.1V128.9z"/>
		</g>
	</g>
</g>
</svg>
