<svg width="80" height="52" viewBox="0 0 80 52" fill="none" xmlns="http://www.w3.org/2000/svg">
<path d="M24.8947 6.36856C33.5656 -2.12285 47.6207 -2.12285 56.3029 6.36856L57.3461 7.38933C57.7835 7.81558 57.7835 8.49983 57.3461 8.92608L53.779 12.4258C53.5659 12.639 53.2069 12.639 52.9938 12.4258L51.558 11.0237C45.5119 5.10102 35.6969 5.10102 29.6508 11.0237L28.114 12.5268C27.9009 12.7399 27.542 12.7399 27.3288 12.5268L23.7506 9.02704C23.3131 8.60078 23.3131 7.91653 23.7506 7.49028L24.8947 6.36856ZM63.6838 13.5924L66.8582 16.6996C67.2957 17.1259 67.2957 17.8101 66.8582 18.2364L52.5339 32.2691C52.0964 32.6953 51.4009 32.6953 50.9635 32.2691L40.7895 22.3082C40.6773 22.2072 40.509 22.2072 40.3969 22.3082L30.2341 32.2691C29.7966 32.6953 29.1012 32.6953 28.6637 32.2691L14.3281 18.2476C13.8906 17.8213 13.8906 17.1371 14.3281 16.7108L17.5026 13.6037C17.94 13.1774 18.6355 13.1774 19.073 13.6037L29.247 23.5645C29.3591 23.6655 29.5274 23.6655 29.6396 23.5645L39.8024 13.6037C40.2398 13.1774 40.9353 13.1774 41.3728 13.6037L51.5468 23.5645C51.6589 23.6655 51.8272 23.6655 51.9394 23.5645L62.1134 13.6037C62.5396 13.1662 63.2463 13.1662 63.6838 13.5924Z" fill="#3A99FB"/>
<path d="M5.50125 45.8258L3.89864 51.5887H2.2306L0 43.1505H1.83155L3.15944 49.26H3.20522L4.7817 43.1505H6.2731L7.84959 49.26H7.89536L9.22978 43.1505H11.0613L8.82421 51.5887H7.15616L5.55356 45.8258H5.50125ZM13.4947 50.4505C14.2338 50.4505 14.8488 49.9665 14.8488 49.2862V48.8283L13.5274 48.9068C12.8929 48.9526 12.5266 49.2404 12.5266 49.6852C12.5266 50.1627 12.9125 50.4505 13.4947 50.4505ZM12.9321 51.6868C11.7416 51.6868 10.8324 50.915 10.8324 49.7899C10.8324 48.6517 11.7089 47.991 13.2723 47.8929L14.8488 47.8013V47.3892C14.8488 46.807 14.4367 46.4669 13.7956 46.4669C13.1611 46.4669 12.7556 46.7808 12.6705 47.2453H11.1071C11.1725 46.0286 12.2061 45.1914 13.8676 45.1914C15.4767 45.1914 16.5233 46.0221 16.5233 47.2846V51.5953H14.8749V50.6337H14.8422C14.489 51.2944 13.7171 51.6868 12.9321 51.6868ZM17.6681 43.1505H19.3753V51.5887H17.6681V43.1505ZM20.5658 43.1505H22.273V51.5887H20.5658V43.1505ZM26.2372 46.4473C25.4914 46.4473 24.9484 47.0164 24.8895 47.7948H27.5522C27.519 46.9967 26.9959 46.4473 26.2372 46.4473ZM27.5779 49.6721H29.1483C28.9582 50.9019 27.8397 51.7261 26.2897 51.7261C24.36 51.7261 23.2019 50.4898 23.2019 48.4881C23.2019 46.4865 24.3729 45.1914 26.2238 45.1914C28.049 45.1914 29.2002 46.4276 29.2002 48.3311V48.8545H24.8831V48.9591C24.8831 49.8553 25.4523 50.4701 26.3223 50.4701C26.937 50.4571 27.4146 50.1496 27.5779 49.6721ZM30.528 43.8765H32.2355V45.3222H33.3936V46.6108H32.2355V49.6067C32.2355 50.0842 32.4711 50.3132 32.9749 50.3132C33.1254 50.3132 33.2822 50.3001 33.3866 50.287V51.543C33.2099 51.5822 32.916 51.6149 32.5754 51.6149C31.1036 51.6149 30.528 51.1243 30.528 49.901V46.6108H29.6451V45.3222H30.528V43.8765ZM38.2011 51.7327C35.7484 51.7327 34.2112 50.0907 34.2112 47.3631C34.2112 44.6419 35.7612 43 38.2011 43C40.2287 43 41.7729 44.2886 41.9099 46.1725H40.1896C40.0263 45.139 39.228 44.4587 38.2011 44.4587C36.8668 44.4587 36.0096 45.5773 36.0096 47.3499C36.0096 49.1488 36.8604 50.2608 38.2075 50.2608C39.2542 50.2608 40.0065 49.646 40.196 48.6451H41.9169C41.714 50.5421 40.2748 51.7327 38.2011 51.7327ZM45.7301 51.7195C43.8331 51.7195 42.6231 50.5028 42.6231 48.4489C42.6231 46.4211 43.853 45.1848 45.7301 45.1848C47.6073 45.1848 48.8371 46.4146 48.8371 48.4489C48.8371 50.5094 47.6271 51.7195 45.7301 51.7195ZM45.7301 50.4178C46.5675 50.4178 47.0976 49.7113 47.0976 48.4554C47.0976 47.2126 46.5611 46.4931 45.7301 46.4931C44.8997 46.4931 44.3568 47.2126 44.3568 48.4554C44.3568 49.7113 44.8927 50.4178 45.7301 50.4178ZM49.7136 51.5887V45.3222H51.3622V46.4407H51.3948C51.7284 45.6623 52.3891 45.2044 53.3571 45.2044C54.7508 45.2044 55.5288 46.0809 55.5288 47.5462V51.5887H53.8219V47.906C53.8219 47.0883 53.4358 46.6173 52.6707 46.6173C51.9051 46.6173 51.4211 47.1799 51.4211 47.991V51.5887H49.7136ZM56.6082 51.5887V45.3222H58.2567V46.4407H58.2894C58.6229 45.6623 59.2836 45.2044 60.2453 45.2044C61.6384 45.2044 62.4169 46.0809 62.4169 47.5462V51.5887H60.71V47.906C60.71 47.0883 60.324 46.6173 59.5583 46.6173C58.7932 46.6173 58.3092 47.1799 58.3092 47.991V51.5887H56.6082ZM66.3223 46.4473C65.5764 46.4473 65.0335 47.0164 64.9746 47.7948H67.6373C67.604 46.9967 67.0809 46.4473 66.3223 46.4473ZM67.6565 49.6721H69.2263C69.0368 50.9019 67.9183 51.7261 66.3677 51.7261C64.4381 51.7261 63.2805 50.4898 63.2805 48.4881C63.2805 46.4865 64.4515 45.1914 66.3024 45.1914C68.1277 45.1914 69.2788 46.4276 69.2788 48.3311V48.8545H64.9618V48.9591C64.9618 49.8553 65.5309 50.4701 66.4004 50.4701C67.022 50.4571 67.4996 50.1496 67.6565 49.6721ZM75.8462 47.6508H74.2636C74.165 46.9902 73.7271 46.5258 73.0267 46.5258C72.1829 46.5258 71.6598 47.2387 71.6598 48.4489C71.6598 49.6852 72.1829 50.3851 73.0337 50.3851C73.7207 50.3851 74.1586 49.973 74.27 49.2927H75.8596C75.7745 50.771 74.6689 51.7261 73.0203 51.7261C71.1303 51.7261 69.9331 50.4963 69.9331 48.4554C69.9331 46.4473 71.1297 45.1914 73.0075 45.1914C74.6951 45.1848 75.7745 46.2314 75.8462 47.6508ZM77.135 43.8765H78.8425V45.3222H80V46.6108H78.8425V49.6067C78.8425 50.0842 79.0775 50.3132 79.5813 50.3132C79.7318 50.3132 79.8886 50.3001 79.9936 50.287V51.543C79.8169 51.5822 79.5288 51.6149 79.1824 51.6149C77.7106 51.6149 77.135 51.1243 77.135 49.901V46.6108H76.2521V45.3222H77.135V43.8765Z" fill="#3999FA"/>
</svg>
