<svg width="247" height="247" viewBox="0 0 247 247" fill="none" xmlns="http://www.w3.org/2000/svg">
<path d="M172.083 16.875C168.541 16.25 165.208 16.0417 161.666 16.0417C155 12.2917 147.708 9.16667 140 7.08334C114.583 0.208335 87.2915 9.79167 71.8748 31.25C61.4581 45.4167 55.6248 62.5 54.7915 77.9167C54.5831 81.6667 59.5831 83.125 61.6665 80C67.9165 70.2083 79.1665 55.625 96.8748 43.75C98.5415 42.5 100.416 41.4583 102.291 40.625C101.25 42.0833 100.833 43.5417 100.625 45.2083C100.625 45.8333 100.625 46.4583 100.833 47.0833C100.416 47.2917 99.9998 47.5 99.5831 47.9167C82.9165 59.1667 72.0831 72.9167 65.8331 82.7084C64.1665 85.2084 61.4581 86.6667 58.5415 86.6667C56.0415 86.6667 53.7498 85.625 52.0831 83.9583C50.4165 82.2917 49.5831 80 49.7915 77.7083C50.6248 60.8333 57.0831 42.9167 67.7081 28.3333C80.8331 10.625 101.666 0 123.541 0C129.583 0 135.416 0.833334 141.25 2.29167C152.291 5.20834 162.916 10.4167 172.083 16.875Z" fill="white"/>
<path d="M161.666 16.0416C158.125 16.0416 154.791 16.2499 151.25 16.8749C133.541 19.5833 116.25 27.7083 103.75 39.1666C103.333 39.5833 102.916 39.9999 102.5 40.6249C100.625 41.6666 98.958 42.7083 97.083 43.7499C79.3747 55.6249 67.9164 70.2083 61.8747 79.9999C59.7914 83.1249 54.7914 81.6666 54.9997 77.9166C55.8331 62.7083 61.6664 45.4166 72.0831 31.2499C87.7081 9.99993 114.791 0.416599 140.208 7.08327C147.708 9.1666 155 12.2916 161.666 16.0416Z" fill="#5FA8DC"/>
<path d="M51.6666 143.125C49.9999 144.791 47.7082 145.833 45.2082 145.625C42.9166 145.625 40.6249 144.583 39.1666 142.708C27.9166 130.208 19.7916 112.916 17.0832 95.2081C13.7499 73.5415 20.8332 51.2498 36.4582 35.8331C40.6249 31.6665 45.4166 27.9165 50.6249 24.9998C66.2499 16.0415 84.7916 11.4581 101.458 12.2915C105 12.4998 107.708 14.5831 108.958 17.7081C110.208 20.8331 109.375 24.5831 107.083 26.8748C106.458 27.4998 105.625 28.1248 104.792 28.5415C96.8749 32.4998 84.9999 39.5831 73.5416 50.8331C71.0416 53.3331 68.7499 55.8331 66.4582 58.5415C59.7916 66.4581 55.2082 76.0415 53.1249 86.2498C49.1666 106.25 51.2499 123.541 53.7499 134.791C54.5832 138.125 53.7499 141.041 51.6666 143.125Z" fill="white"/>
<path d="M42.9164 139.583C32.7081 128.333 24.7914 111.875 22.0831 94.583C17.9164 68.5413 30.4164 42.4996 53.3331 29.3746C68.5414 20.6246 86.2498 16.458 101.458 17.2913C105.208 17.4996 106.25 22.708 102.916 24.3746C92.4998 29.583 76.8748 39.1663 63.1248 55.6246C56.0414 64.1663 51.0414 74.583 48.7498 85.6246C44.5831 106.458 46.8748 124.791 49.3748 136.25C49.9998 140 45.4164 142.291 42.9164 139.583Z" fill="#5FA8DC"/>
<path d="M42.9164 139.583C32.7081 128.333 24.7914 111.875 22.0831 94.583C17.9164 68.5413 30.4164 42.4996 53.3331 29.3746C68.5414 20.6246 86.2498 16.458 101.458 17.2913C105.208 17.4996 106.25 22.708 102.916 24.3746C92.4998 29.583 76.8748 39.1663 63.1248 55.6246C56.0414 64.1663 51.0414 74.583 48.7498 85.6246C44.5831 106.458 46.8748 124.791 49.3748 136.25C49.9998 140 45.4164 142.291 42.9164 139.583Z" fill="#5FA8DC"/>
<path d="M86.6667 187.917C86.6667 190.417 85.625 192.708 83.9584 194.375C82.2917 196.042 80 196.875 77.7084 196.667C60.8333 195.833 42.9167 189.375 28.3333 178.75C10.625 165.833 0 145 0 123.125C0 117.083 0.83333 111.25 2.29166 105.417C6.875 88.125 16.875 71.6667 29.375 60.4167C31.875 58.125 35.4167 57.5 38.5417 58.9583C41.6667 60.4167 43.75 63.5417 43.75 66.875C43.75 67.9167 43.5417 68.75 43.3333 69.7917C40.4167 78.125 37.0833 91.6667 37.0833 107.708C37.0833 111.25 37.2917 114.583 37.5 118.125C38.5417 128.542 42.0833 138.542 47.7083 147.083C58.9583 163.958 72.9167 174.792 82.5 181.042C85.2084 182.292 86.6667 185 86.6667 187.917Z" fill="white"/>
<path d="M77.9164 191.667C62.7081 190.833 45.4165 185 31.2498 174.583C9.99979 159.167 0.416452 132.083 7.29145 106.458C11.8748 89.5834 21.4581 74.1668 32.9164 63.9584C35.8331 61.4584 39.9998 64.3751 38.7498 67.9168C34.9998 78.9584 30.8331 97.0834 32.7081 118.333C33.7498 129.583 37.4998 140.208 43.7498 149.583C55.6248 167.292 70.2081 178.75 79.9998 184.792C83.3331 186.875 81.6664 191.875 77.9164 191.667Z" fill="#5FA8DC"/>
<path d="M77.9164 191.667C62.7081 190.833 45.4165 185 31.2498 174.583C9.99979 159.167 0.416452 132.083 7.29145 106.458C11.8748 89.5834 21.4581 74.1668 32.9164 63.9584C35.8331 61.4584 39.9998 64.3751 38.7498 67.9168C34.9998 78.9584 30.8331 97.0834 32.7081 118.333C33.7498 129.583 37.4998 140.208 43.7498 149.583C55.6248 167.292 70.2081 178.75 79.9998 184.792C83.3331 186.875 81.6664 191.875 77.9164 191.667Z" fill="#5FA8DC"/>
<path d="M143.334 194.792C145 196.458 146.042 198.75 145.834 201.25C145.834 203.542 144.792 205.833 142.917 207.292C130.417 218.542 113.125 226.667 95.4168 229.375C73.7502 232.708 51.4585 225.625 36.0419 210C31.8752 205.833 28.1252 201.042 25.2085 195.833C16.2502 180.208 11.6669 161.667 12.5002 145C12.7085 141.458 14.7919 138.75 17.9169 137.5C21.0419 136.25 24.7919 137.083 27.0835 139.375C27.7085 140 28.3335 140.833 28.7502 141.667C32.7085 149.583 39.7919 161.458 51.0419 172.917C53.5419 175.417 56.0419 177.708 58.7502 180C66.6669 186.667 76.2502 191.25 86.4585 193.333C106.459 197.292 123.75 195.208 135 192.708C138.125 191.875 141.25 192.708 143.334 194.792Z" fill="white"/>
<path d="M139.583 203.75C128.333 213.958 111.875 221.875 94.5834 224.583C68.5418 228.75 42.5001 216.25 29.3751 193.333C20.6251 178.125 16.4585 160.417 17.2918 145.208C17.5001 141.458 22.7085 140.417 24.3751 143.75C29.5835 154.167 39.1668 169.792 55.6251 183.542C64.1668 190.625 74.5835 195.625 85.6251 197.917C106.458 202.083 124.792 199.792 136.25 197.292C140 196.667 142.5 201.25 139.583 203.75Z" fill="#5FA8DC"/>
<path d="M139.583 203.75C128.333 213.958 111.875 221.875 94.5834 224.583C68.5418 228.75 42.5001 216.25 29.3751 193.333C20.6251 178.125 16.4585 160.417 17.2918 145.208C17.5001 141.458 22.7085 140.417 24.3751 143.75C29.5835 154.167 39.1668 169.792 55.6251 183.542C64.1668 190.625 74.5835 195.625 85.6251 197.917C106.458 202.083 124.792 199.792 136.25 197.292C140 196.667 142.5 201.25 139.583 203.75Z" fill="#5FA8DC"/>
<path d="M123.125 246.459C117.083 246.459 111.25 245.625 105.417 244.167C88.1251 239.584 71.6668 229.584 60.4168 217.084C58.1251 214.584 57.5001 211.042 58.9584 207.917C60.4168 204.792 63.5418 202.709 66.8751 202.709C67.9168 202.709 68.7501 202.917 69.7918 203.125C78.1251 206.042 91.6668 209.375 107.708 209.375C111.25 209.375 114.583 209.167 118.125 208.959C128.542 207.917 138.542 204.375 147.084 198.75C163.959 187.5 174.792 173.542 181.042 163.959C182.709 161.459 185.417 160 188.334 160C190.834 160 193.125 161.042 194.792 162.709C196.459 164.375 197.292 166.667 197.084 168.959C196.25 185.834 189.792 203.75 179.167 218.334C165.834 235.834 145 246.459 123.125 246.459Z" fill="white"/>
<path d="M191.875 168.542C191.042 183.75 185.208 201.042 174.792 215.209C159.167 236.459 132.083 246.042 106.667 239.375C89.7918 234.792 74.3751 225.209 64.1668 213.75C61.6668 210.834 64.5835 206.667 68.1251 207.917C79.1668 211.667 97.0835 215.834 118.333 213.959C129.583 212.917 140.208 209.167 149.583 202.917C167.292 191.042 178.75 176.459 184.792 166.667C187.083 163.334 192.083 164.792 191.875 168.542Z" fill="#5FA8DC"/>
<path d="M210.208 210.625C206.042 214.792 201.25 218.542 196.042 221.458C180.417 230.417 161.875 235 145.208 234.167C141.667 233.958 138.958 231.875 137.708 228.75C136.458 225.625 137.292 221.875 139.583 219.583C140.208 218.958 141.042 218.333 141.875 217.917C149.792 213.958 161.667 206.875 173.125 195.625C175.625 193.125 177.917 190.625 180.208 187.917C186.875 180 191.458 170.417 193.542 160.208C197.5 140.208 195.417 122.917 192.917 111.667C192.292 108.75 193.125 105.833 195.208 103.542C196.875 101.875 199.167 100.833 201.667 101.042C203.958 101.042 206.25 102.083 207.708 103.958C218.958 116.458 227.083 133.75 229.792 151.458C233.125 172.708 225.833 195 210.208 210.625Z" fill="white"/>
<path d="M203.75 106.875C213.958 118.125 221.875 134.583 224.583 151.875C228.75 177.916 216.25 203.958 193.333 217.083C178.125 225.833 160.417 230 145.208 229.166C141.458 228.958 140.417 223.75 143.75 222.083C154.167 216.875 169.792 207.291 183.542 190.833C190.625 182.291 195.625 171.875 197.917 160.833C202.083 140 199.792 121.666 197.292 110.208C196.667 106.666 201.25 104.166 203.75 106.875Z" fill="#5FA8DC"/>
<path d="M246.667 123.542C246.667 129.583 245.833 135.417 244.375 141.25C239.792 158.542 229.792 175 217.292 186.25C214.792 188.542 211.25 189.167 208.125 187.708C205 186.25 202.917 183.125 202.917 179.792C202.917 178.75 203.125 177.917 203.333 176.875C206.25 168.542 209.583 155 209.583 138.958C209.583 135.417 209.375 132.083 209.167 128.542C208.125 118.125 204.583 108.125 198.958 99.5832C187.708 82.7082 173.75 71.8749 164.167 65.6249C161.667 63.9582 160.208 61.2499 160.208 58.3332C160.208 55.8332 161.25 53.5415 162.917 51.8749C164.583 50.2082 166.875 49.3749 169.167 49.5832C186.042 50.4166 203.958 56.8749 218.542 67.4999C236.042 80.6249 246.667 101.458 246.667 123.542Z" fill="white"/>
<path d="M168.75 54.7915C183.959 55.6248 201.25 61.4581 215.417 71.8748C236.667 87.4998 246.25 114.583 239.584 140C235 156.875 225.417 172.291 213.959 182.5C211.042 185 206.875 182.083 208.125 178.541C211.875 167.5 216.042 149.583 214.167 128.333C213.125 117.083 209.375 106.458 203.125 97.0831C191.25 79.3748 176.667 67.9165 166.875 61.8748C163.334 59.5831 165 54.5831 168.75 54.7915Z" fill="#5FA8DC"/>
<path d="M234.167 101.458C233.958 105 231.875 107.708 228.75 108.958C225.625 110.208 221.875 109.375 219.583 107.083C218.958 106.458 218.333 105.625 217.917 104.792C213.958 96.8748 206.875 84.9999 195.625 73.5415C193.125 71.0415 190.625 68.7498 187.917 66.4582C180 59.7915 170.417 55.2082 160.208 53.1248C140.208 49.1665 122.917 51.2498 111.667 53.7498C108.75 54.3748 105.833 53.5415 103.75 51.4582C102.5 50.2082 101.667 48.5415 101.25 46.8748C101.042 46.2498 101.042 45.6248 101.042 44.9998C101.042 43.3332 101.667 41.6665 102.708 40.4165C103.125 39.9998 103.542 39.3748 103.958 38.9582C116.458 27.7082 133.75 19.5832 151.458 16.8748C155 16.2498 158.333 16.0415 161.875 16.0415C165.417 16.0415 168.958 16.2498 172.292 16.8748C186.667 18.9582 200.208 25.8332 210.833 36.2498C215 40.4165 218.75 45.2082 221.667 50.4165C230.625 66.0415 235.208 84.5832 234.167 101.458Z" fill="white"/>
<path d="M107.083 42.7082C118.333 32.4998 134.792 24.5832 152.083 21.8748C178.125 17.7082 204.167 30.2082 217.292 53.1248C226.042 68.3332 230.208 86.0415 229.375 101.25C229.167 105 223.958 106.042 222.292 102.708C217.083 92.2915 207.5 76.6665 191.042 62.9165C182.5 55.8332 172.083 50.8332 161.042 48.5415C140.208 44.3748 121.875 46.6665 110.417 49.1665C106.667 49.7915 104.167 45.2082 107.083 42.7082Z" fill="#5FA8DC"/>
<path d="M186.25 29.3748C184.583 27.4998 182.708 25.6248 180.833 23.9582C178.125 21.4582 175.208 19.1665 172.083 16.8748C168.542 16.2498 165.208 16.0415 161.667 16.0415C158.125 16.0415 154.792 16.2498 151.25 16.8748C133.542 19.5832 116.25 27.7082 103.75 39.1665C103.333 39.5832 102.917 39.9999 102.5 40.6249C101.458 42.0832 101.042 43.5415 100.833 45.2082C100.833 45.8332 100.833 46.4582 101.042 47.0832C102.708 46.0415 104.375 44.9999 106.042 44.1665C113.125 40.6249 120.833 38.3332 128.75 37.4999C132.083 37.0832 135.625 37.0832 139.167 37.0832C155.208 37.0832 168.542 40.4165 177.083 43.3332C177.917 43.7499 178.958 43.7499 180 43.7499C183.333 43.7499 186.458 41.6665 187.917 38.5415C189.167 35.6249 188.542 32.0832 186.25 29.3748Z" fill="white"/>
<path d="M178.541 38.7499C167.5 34.9999 149.583 30.8332 128.333 32.7082C125 33.1249 121.458 33.5415 118.125 34.3749C112.708 35.8332 107.292 37.7082 102.292 40.4165C102.708 39.9999 103.125 39.3749 103.542 38.9582C116.041 27.7082 133.333 19.5832 151.041 16.8748C154.583 16.2498 157.916 16.0415 161.458 16.0415C164.375 17.7082 167.291 19.5832 170 21.4582C174.583 24.7915 178.958 28.5415 182.5 32.7082C185 35.6249 182.083 39.7915 178.541 38.7499Z" fill="#5FA8DC"/>
<path d="M178.541 38.7499C167.5 34.9999 149.583 30.8332 128.333 32.7082C125 33.1249 121.458 33.5415 118.125 34.3749C112.708 35.8332 107.292 37.7082 102.292 40.4165C102.708 39.9999 103.125 39.3749 103.542 38.9582C116.041 27.7082 133.333 19.5832 151.041 16.8748C154.583 16.2498 157.916 16.0415 161.458 16.0415C164.375 17.7082 167.291 19.5832 170 21.4582C174.583 24.7915 178.958 28.5415 182.5 32.7082C185 35.6249 182.083 39.7915 178.541 38.7499Z" fill="#5FA8DC"/>
<path d="M104.583 39.375C104.583 39.375 101.875 40.625 101.042 41.25C100.417 39.1667 105.208 32.2917 105.208 32.2917L120.625 21.875L158.542 14.375L161.667 16.0417L159.375 18.125C159.375 18.125 140.625 22.2917 138.333 22.7083C136.25 23.125 119.375 30 119.375 30L108.333 36.0417L104.583 39.375Z" fill="#5FA8DC"/>
</svg>
