<svg width="281" height="484" viewBox="0 0 281 484" fill="none" xmlns="http://www.w3.org/2000/svg">
<path d="M193.444 123.125L129.486 85.6249C116.361 77.9166 100.111 87.2916 100.111 102.5V177.708C100.111 192.917 116.569 202.292 129.486 194.583L193.444 157.083C206.361 149.167 206.361 130.625 193.444 123.125Z" fill="#5FA8DC"/>
<path d="M124.694 186.25L139.278 177.708L158.444 166.458C162.194 164.375 162.403 158.958 158.861 156.458L155.111 153.75L121.986 129.583V111.042C121.986 109.167 124.069 107.917 125.528 108.958L174.903 137.917C176.569 138.958 176.569 141.042 174.903 142.083L168.444 145.833V160.417L168.653 160.208L188.444 148.542C193.028 145.833 193.444 141.667 193.444 139.792C193.444 138.125 193.028 133.75 188.444 131.042L124.694 93.5416C120.111 90.8332 116.153 92.4999 114.486 93.5416C113.028 94.3749 109.486 97.0832 109.486 102.292V130.833V138.333L122.611 147.917L141.569 161.667L133.653 166.25L125.736 170.833C124.069 171.875 122.194 170.625 122.194 168.75V160.625L109.694 151.458V177.292C109.694 182.5 113.236 185.208 114.694 186.042C116.153 187.083 120.111 188.958 124.694 186.25Z" fill="white"/>
<path d="M139.903 13.9583C146.986 13.9583 154.069 14.5833 161.153 15.8333C229.486 27.5 275.736 92.5 264.278 160.833C259.278 190.417 243.861 217.083 220.944 236.25C198.236 255.208 169.694 265.625 140.319 265.625C133.236 265.625 126.153 265 119.069 263.75C50.736 252.083 4.48594 187.083 15.9443 118.75C20.9443 89.1667 36.3609 62.5 59.2776 43.3333C81.9859 24.375 110.528 13.9583 139.903 13.9583ZM139.903 0C72.8193 0 13.6526 48.3333 1.98594 116.667C-10.9307 192.917 40.5276 265.208 116.569 277.917C124.486 279.167 132.403 280 140.111 280C207.194 280 266.361 231.667 278.028 163.333C290.944 87.0833 239.486 14.7917 163.444 2.08333C155.528 0.625 147.611 0 139.903 0Z" fill="#5FA8DC"/>
<path d="M149.903 457.917C148.861 459.167 146.986 458.958 145.736 457.917C143.445 455.417 141.778 452.708 140.528 449.583C138.653 444.583 135.528 435.208 133.028 425.208C131.778 419.792 130.528 413.958 129.903 408.333C127.611 387.917 130.945 367.5 133.861 357.5C133.861 357.5 114.903 391.875 130.111 445.833C130.736 448.542 131.57 451.667 132.403 454.792C133.653 458.542 135.111 462.292 136.361 465.417C139.278 472.917 142.195 478.542 144.07 482.292C145.111 484.167 147.82 483.75 148.236 481.667C150.111 473.125 155.111 452.5 155.111 452.5C154.069 453.958 151.986 455.833 149.903 457.917Z" fill="#5FA7DB"/>
<path d="M143.653 319.792C139.694 315.417 132.611 316.458 130.111 321.875C123.653 336.875 121.361 352.917 120.944 373.542C121.361 372.708 126.569 345 133.444 335C134.694 333.333 137.194 333.75 137.819 335.833C139.694 343.333 142.611 355 143.444 378.75C145.111 423.958 143.444 431.25 143.444 431.25C143.444 431.25 148.236 423.541 149.486 375.416C149.486 373.333 151.986 372.5 153.444 373.958C157.611 378.541 159.278 388.958 159.903 407.291C160.736 432.916 158.861 443.125 158.444 444.791C161.986 431.875 164.903 417.5 166.361 401.666C170.111 361.458 155.319 332.917 143.653 319.792Z" fill="#5FA7DB"/>
<path d="M137.819 306.458C141.846 306.458 145.111 303.194 145.111 299.167C145.111 295.139 141.846 291.875 137.819 291.875C133.792 291.875 130.528 295.139 130.528 299.167C130.528 303.194 133.792 306.458 137.819 306.458Z" fill="#5FA7DB"/>
<path d="M46.9861 269.166C51.0132 269.166 54.2778 265.902 54.2778 261.875C54.2778 257.848 51.0132 254.583 46.9861 254.583C42.959 254.583 39.6945 257.848 39.6945 261.875C39.6945 265.902 42.959 269.166 46.9861 269.166Z" fill="#5FA7DB"/>
<path d="M53.6525 362.708C53.6525 362.708 64.4859 318.333 49.6942 280.624C48.6525 278.124 45.3192 278.124 44.2775 280.416C40.1109 289.791 33.2359 311.666 35.5275 348.124C38.6525 399.374 20.3192 442.083 20.3192 442.083C20.3192 442.083 73.6525 406.041 73.6525 355.208C73.6525 329.583 69.6942 314.583 67.4025 312.708C67.4025 312.708 77.4025 372.083 39.2775 402.291C38.0275 403.124 36.1525 402.291 36.5692 400.833C38.6525 392.916 39.2775 355.208 48.8609 344.166C49.9025 342.916 51.7775 343.541 52.1942 344.999C53.0275 348.958 54.6942 356.458 53.6525 362.708Z" fill="#5FA7DB"/>
<path d="M228.652 269.166C232.679 269.166 235.944 265.902 235.944 261.875C235.944 257.848 232.679 254.583 228.652 254.583C224.625 254.583 221.36 257.848 221.36 261.875C221.36 265.902 224.625 269.166 228.652 269.166Z" fill="#5FA7DB"/>
<path d="M221.986 362.708C221.986 362.708 211.153 318.333 225.944 280.624C226.986 278.124 230.319 278.124 231.361 280.416C235.528 289.791 242.403 311.666 240.111 348.124C236.986 399.374 255.319 442.083 255.319 442.083C255.319 442.083 201.986 406.041 201.986 355.208C201.986 329.583 205.944 314.583 208.236 312.708C208.236 312.708 198.236 372.083 236.361 402.291C237.611 403.124 239.486 402.291 239.069 400.833C236.986 392.916 236.361 355.208 226.778 344.166C225.736 342.916 223.861 343.541 223.444 344.999C222.611 348.958 220.944 356.458 221.986 362.708Z" fill="#5FA7DB"/>
</svg>
