<?xml version="1.0" encoding="utf-8"?>
<!-- Generator: Adobe Illustrator 26.0.1, SVG Export Plug-In . SVG Version: 6.00 Build 0)  -->
<svg version="1.1" id="Layer_1" xmlns="http://www.w3.org/2000/svg" xmlns:xlink="http://www.w3.org/1999/xlink" x="0px" y="0px"
	 viewBox="0 0 3194 647" style="enable-background:new 0 0 3194 647;" xml:space="preserve">
<style type="text/css">
	.st0{fill:#FFFFFF;}
	.st1{fill-rule:evenodd;clip-rule:evenodd;fill:#FFFFFF;}
</style>
<path class="st0" d="M863.9,210.7h34.7l97.2,225.5h-45.9l-21-51.6h-97.8l-20.4,51.6h-44.9L863.9,210.7z M914.9,350.2l-34.7-91.7
	l-35.4,91.7H914.9z"/>
<path class="st0" d="M1038.9,210.7h46.2l61.5,170.4l63.4-170.4h43.3l-91.1,225.5h-34.7L1038.9,210.7z"/>
<path class="st0" d="M1396.7,210.7h34.7l97.1,225.5h-45.9l-21-51.6h-97.8l-20.4,51.6h-44.9L1396.7,210.7z M1447.7,350.2l-34.7-91.7
	l-35.4,91.7H1447.7z"/>
<path class="st0" d="M1617.3,210.7h40.1v189.2h95.9v36.3h-136V210.7z"/>
<path class="st0" d="M1919.2,210.7h34.7l97.2,225.5h-45.9l-21-51.6h-97.8l-20.4,51.6h-44.9L1919.2,210.7z M1970.2,350.2l-34.7-91.7
	l-35.4,91.7H1970.2z"/>
<path class="st0" d="M2139.9,210.7h53.2l109.3,167.6h0.6V210.7h40.1v225.5h-51l-111.5-173h-0.6v173h-40.1V210.7z"/>
<path class="st0" d="M2611.9,263.6c-8.3-8.9-16.3-14.9-24.2-17.8c-7.6-3-15.4-4.5-23.2-4.5c-11.7,0-22.3,2.1-31.9,6.4
	c-9.3,4-17.4,9.8-24.2,17.2c-6.8,7.2-12.1,15.7-15.9,25.5c-3.6,9.8-5.4,20.3-5.4,31.5c0,12.1,1.8,23.3,5.4,33.4
	c3.8,10.2,9.1,19,15.9,26.4c6.8,7.4,14.9,13.3,24.2,17.5c9.6,4.2,20.2,6.4,31.9,6.4c9.1,0,17.9-2.1,26.4-6.4
	c8.7-4.5,16.8-11.5,24.2-21l33.1,23.6c-10.2,14-22.6,24.2-37.3,30.6c-14.6,6.4-30.3,9.6-46.8,9.6c-17.4,0-33.4-2.8-48.1-8.3
	c-14.4-5.7-27-13.7-37.6-23.9c-10.4-10.4-18.6-22.8-24.5-37.3c-5.9-14.4-8.9-30.5-8.9-48.1c0-18.1,3-34.4,8.9-49.1
	c5.9-14.9,14.1-27.5,24.5-37.9c10.6-10.4,23.1-18.4,37.6-23.9c14.6-5.7,30.7-8.6,48.1-8.6c15.3,0,29.4,2.8,42.4,8.3
	c13.2,5.3,25.4,14.4,36.6,27.4L2611.9,263.6z"/>
<path class="st0" d="M2738.9,210.7h40.1v89.8h105.4v-89.8h40.1v225.5h-40.1v-99.4H2779v99.4h-40.1V210.7z"/>
<path class="st0" d="M3038.7,210.7h149.4V247h-109.3v55.4h103.5v36.3h-103.5v61.2h115v36.3h-155.1V210.7z"/>
<path class="st1" d="M649.2,324.6c0,179.3-145.3,324.6-324.6,324.6C145.3,649.2,0,503.8,0,324.6C0,145.3,145.3,0,324.6,0
	C503.8,0,649.2,145.3,649.2,324.6z M232.6,453.8h-63c-13.2,0-19.8,0-23.8-2.5c-4.3-2.8-6.9-7.4-7.3-12.5c-0.2-4.7,3-10.4,9.6-21.9
	l155.5-274.2c6.6-11.6,10-17.5,14.2-19.6c4.5-2.3,10-2.3,14.5,0c4.2,2.2,7.6,8,14.2,19.6l32,55.8l0.2,0.3
	c7.1,12.5,10.8,18.8,12.4,25.5c1.8,7.3,1.8,14.9,0,22.2c-1.6,6.7-5.2,13.1-12.4,25.8L297,416.5l-0.2,0.4
	c-7.2,12.6-10.8,19-15.9,23.8c-5.5,5.3-12.1,9.1-19.4,11.2C254.9,453.8,247.4,453.8,232.6,453.8z M391.7,453.8h90.3
	c13.3,0,20,0,24-2.6c4.3-2.8,7-7.5,7.3-12.6c0.2-4.6-3-10.1-9.2-20.9c-0.2-0.4-0.4-0.7-0.7-1.1l-45.2-77.3l-0.5-0.9
	c-6.4-10.7-9.6-16.2-13.7-18.3c-4.5-2.3-9.9-2.3-14.4,0c-4.1,2.2-7.5,7.8-14.1,19.2l-45.1,77.3l-0.2,0.3
	c-6.6,11.4-9.9,17.1-9.7,21.7c0.3,5.1,3,9.8,7.3,12.6C371.7,453.8,378.4,453.8,391.7,453.8z"/>
</svg>
