<svg xmlns="http://www.w3.org/2000/svg" viewBox="0 0 649.2 649.2"><defs><style>.cls-1{fill:#fff;fill-rule:evenodd;}</style></defs><g id="Layer_2" data-name="Layer 2"><g id="Layer_1-2" data-name="Layer 1"><path class="cls-1" d="M649.2,324.6c0,179.3-145.3,324.6-324.6,324.6S0,503.8,0,324.6,145.3,0,324.6,0,649.2,145.3,649.2,324.6ZM232.6,453.8h-63c-13.2,0-19.8,0-23.8-2.5a16.28,16.28,0,0,1-7.3-12.5c-.2-4.7,3-10.4,9.6-21.9L303.6,142.7c6.6-11.6,10-17.5,14.2-19.6a16.1,16.1,0,0,1,14.5,0c4.2,2.2,7.6,8,14.2,19.6l32,55.8.2.3c7.1,12.5,10.8,18.8,12.4,25.5a46.31,46.31,0,0,1,0,22.2c-1.6,6.7-5.2,13.1-12.4,25.8L297,416.5l-.2.4c-7.2,12.6-10.8,19-15.9,23.8a46.25,46.25,0,0,1-19.4,11.2C254.9,453.8,247.4,453.8,232.6,453.8Zm159.1,0H482c13.3,0,20,0,24-2.6a16.18,16.18,0,0,0,7.3-12.6c.2-4.6-3-10.1-9.2-20.9a6.73,6.73,0,0,0-.7-1.1l-45.2-77.3-.5-.9c-6.4-10.7-9.6-16.2-13.7-18.3a15.89,15.89,0,0,0-14.4,0c-4.1,2.2-7.5,7.8-14.1,19.2l-45.1,77.3-.2.3c-6.6,11.4-9.9,17.1-9.7,21.7a16.18,16.18,0,0,0,7.3,12.6C371.7,453.8,378.4,453.8,391.7,453.8Z"/></g></g></svg>