<svg xmlns="http://www.w3.org/2000/svg" viewBox="0 0 184.17 215.79"><defs><style>.cls-1{fill:#fff;}</style></defs><g id="Layer_2" data-name="Layer 2"><g id="Layer_1-2" data-name="Layer 1"><g id="Layer_2-2" data-name="Layer 2"><g id="katman_1" data-name="katman 1"><path id="binancedex" class="cls-1" d="M112.86,179.21v24.18l-21.09,12.4-20.46-12.4V179.21l20.46,12.4ZM0,95.49,20.46,107.9v41.54l35.35,21.09v24.18L0,161.84Zm183.55,0v66.35l-56.43,32.87V170.53l35.34-21.09V107.9ZM127.12,62.63,148.2,75h0V99.21L112.86,120.3v42.16L92.39,174.87,71.93,162.46V120.3L35.35,99.21V75L56.43,62.6,91.77,83.71Zm-91.77,54L55.81,129v24.18l-20.46-12.4Zm112.85,0v24.18l-20.46,12.4V129Zm-127.74-75L41.55,54,20.46,66.35V90.53L0,78.13V54Zm142.62,0L184.17,54V78.13l-21.09,12.4V66.35L142.62,54Zm-71.31,0L112.86,54,91.77,66.35,71.31,54ZM91.77,0,148.2,32.86,127.74,45.27,92.39,24.18l-36,21.09L36,32.86Z"/></g></g></g></g></svg>