<svg xmlns="http://www.w3.org/2000/svg" viewBox="0 0 600.1 178.1"><defs><style>.cls-1{fill:#fff;}</style></defs><g id="Layer_2" data-name="Layer 2"><g id="layer"><path class="cls-1" d="M457.7,157.3l16.1-5.1V18.7l-16.1,5.1Zm-186-81.1a32.63,32.63,0,0,1,25.5,12L303.8,73c-8.6-8.3-20.1-12.2-32.1-12.2-27.8,0-46.9,21.9-46.7,46.1.2,26.2,20.8,47.6,46.7,47.6,13.1,0,23.1-3.9,30.6-9.4V126.5c-7.9,7.9-19.3,12.6-29.2,12.6-15,0-31.9-12.2-31.9-32.2A30.21,30.21,0,0,1,271.7,76.2ZM379,60.9c-27.7,0-43.9,21.9-43.9,46.1,0,26.2,20.8,47.6,46.7,47.6,13.1,0,23.1-3.9,30.6-9.4V126.6c-7.9,7.9-19.3,12.6-29.3,12.6-13.3,0-27.9-8.3-30.9-25.7h70.7v-6.2C422.8,81.5,405.8,60.9,379,60.9Zm174.2,0a46.9,46.9,0,1,0,46.9,46.9A46.9,46.9,0,0,0,553.2,60.9Zm-174,15.3c12.6,0,25.9,7.9,27,23.1h-54C353.3,84.1,366.6,76.2,379.2,76.2Zm174,63a31.5,31.5,0,1,1,31.5-31.5A31.5,31.5,0,0,1,553.2,139.2Z"/><path class="cls-1" d="M107.8,121.8A51.6,51.6,0,1,0,56.2,70.2,51.6,51.6,0,0,0,107.8,121.8Zm0,18.8a70.3,70.3,0,1,1,70.3-70.3A70.33,70.33,0,0,1,107.8,140.6Z"/><path class="cls-1" d="M70.3,159.3a51.6,51.6,0,1,0-51.6-51.6A51.6,51.6,0,0,0,70.3,159.3Zm0,18.8a70.3,70.3,0,1,1,70.3-70.3A70.33,70.33,0,0,1,70.3,178.1Z"/><path class="cls-1" d="M110.1,140.5a50.22,50.22,0,0,0,10.2-20.2,51.52,51.52,0,0,0,20.2-10.2,69.32,69.32,0,0,1-5.5,25A68.24,68.24,0,0,1,110.1,140.5ZM57.8,57.7A51.52,51.52,0,0,0,37.6,67.9a69.32,69.32,0,0,1,5.5-25,71.48,71.48,0,0,1,25-5.5A52.82,52.82,0,0,0,57.8,57.7Z"/></g></g></svg>