<svg xmlns="http://www.w3.org/2000/svg" viewBox="0 0 178.1 178.1"><defs><style>.cls-1{fill:#fff;}</style></defs><g id="Layer_2" data-name="Layer 2"><g id="layer"><path class="cls-1" d="M107.8,121.8A51.6,51.6,0,1,0,56.2,70.2,51.6,51.6,0,0,0,107.8,121.8Zm0,18.8a70.3,70.3,0,1,1,70.3-70.3A70.33,70.33,0,0,1,107.8,140.6Z"/><path class="cls-1" d="M70.3,159.3a51.6,51.6,0,1,0-51.6-51.6A51.6,51.6,0,0,0,70.3,159.3Zm0,18.8a70.3,70.3,0,1,1,70.3-70.3A70.33,70.33,0,0,1,70.3,178.1Z"/><path class="cls-1" d="M110.1,140.5a50.22,50.22,0,0,0,10.2-20.2,51.52,51.52,0,0,0,20.2-10.2,69.32,69.32,0,0,1-5.5,25A68.24,68.24,0,0,1,110.1,140.5ZM57.8,57.7A51.52,51.52,0,0,0,37.6,67.9a69.32,69.32,0,0,1,5.5-25,71.48,71.48,0,0,1,25-5.5A52.82,52.82,0,0,0,57.8,57.7Z"/></g></g></svg>