<?xml version="1.0" encoding="utf-8"?>
<!-- Generator: Adobe Illustrator 26.0.1, SVG Export Plug-In . SVG Version: 6.00 Build 0)  -->
<svg version="1.1" id="Layer_1" xmlns="http://www.w3.org/2000/svg" xmlns:xlink="http://www.w3.org/1999/xlink" x="0px" y="0px"
	 viewBox="0 0 153 32" style="enable-background:new 0 0 153 32;" xml:space="preserve">
<style type="text/css">
	.st0{fill:#FFFFFF;}
</style>
<path class="st0" d="M27,9.8c-0.7-0.4-1.5-0.4-2.2,0l-5.1,3.1l-3.5,2L10.9,18c-0.7,0.4-1.5,0.4-2.2,0l-4.1-2.4
	c-0.7-0.4-1.1-1.2-1.1-2V8.8c0-0.8,0.4-1.6,1.1-2l4-2.4c0.7-0.4,1.5-0.4,2.2,0l4,2.4C15.6,7.3,16,8,16,8.8v3.1l3.5-2.1V6.7
	c0-0.8-0.4-1.6-1.1-2l-7.4-4.5c-0.7-0.4-1.5-0.4-2.2,0L1.1,4.8C0.4,5.2,0,5.9,0,6.7v9c0,0.8,0.4,1.6,1.1,2l7.6,4.5
	c0.7,0.4,1.5,0.4,2.2,0l5.1-3l3.5-2.1l5.1-3c0.7-0.4,1.5-0.4,2.2,0l4,2.4c0.7,0.4,1.1,1.2,1.1,2v4.8c0,0.8-0.4,1.6-1.1,2l-4,2.4
	c-0.7,0.4-1.5,0.4-2.2,0l-4-2.4c-0.7-0.4-1.1-1.2-1.1-2v-3.1l-3.5,2.1v3.1c0,0.8,0.4,1.6,1.1,2l7.6,4.5c0.7,0.4,1.5,0.4,2.2,0
	l7.6-4.5c0.7-0.4,1.1-1.2,1.1-2v-9c0-0.8-0.4-1.6-1.1-2L27,9.8z"/>
<path class="st0" d="M49.6,29.1v-7.5c0.8,1,2.3,1.6,4,1.6c4.3,0,7.2-3.1,7.2-7.8S58.2,7.6,54,7.6c-1.9,0-3.4,0.7-4.3,1.9V7.9h-4.1
	v21.2H49.6z M53.1,19.6c-2.2,0-3.7-1.7-3.7-4.2c0-2.6,1.5-4.2,3.7-4.2c2.2,0,3.7,1.7,3.7,4.2C56.8,18,55.3,19.6,53.1,19.6z"/>
<path class="st0" d="M70.2,23.2c4.6,0,7.9-3.3,7.9-7.8s-3.3-7.8-7.9-7.8c-4.6,0-7.9,3.3-7.9,7.8S65.6,23.2,70.2,23.2z M70.2,19.6
	c-2.2,0-3.8-1.7-3.8-4.2c0-2.5,1.5-4.2,3.8-4.2c2.2,0,3.8,1.7,3.8,4.2C74,17.9,72.5,19.6,70.2,19.6z"/>
<path class="st0" d="M84.8,23V1.3h-4.1V23H84.8z"/>
<path class="st0" d="M97.2,7.9l-3.1,9.8l-3.2-9.8h-4.2l5.4,15L90,29.1h4l2.1-6.2l5.4-15.1H97.2z"/>
<path class="st0" d="M113.1,9.4c-0.8-1-2.3-1.7-4.1-1.7c-4.4,0-7,3.1-7,7.8s2.6,7.8,7.1,7.8c1.8,0,3.3-0.7,4.1-1.8v2
	c0,1.4-0.9,2.4-2.2,2.4h-6.9v3.3h7.6c3.4,0,5.7-2.1,5.7-5.2v-16h-4.2V9.4z M109.7,19.6c-2.2,0-3.7-1.6-3.7-4.2s1.5-4.2,3.7-4.2
	c2.2,0,3.7,1.7,3.7,4.2S111.9,19.6,109.7,19.6z"/>
<path class="st0" d="M127.7,23.2c4.6,0,7.9-3.3,7.9-7.8s-3.3-7.8-7.9-7.8c-4.6,0-7.9,3.3-7.9,7.8S123.1,23.2,127.7,23.2z
	 M127.7,19.6c-2.2,0-3.8-1.7-3.8-4.2c0-2.5,1.5-4.2,3.8-4.2c2.2,0,3.8,1.7,3.8,4.2C131.5,17.9,129.9,19.6,127.7,19.6z"/>
<path class="st0" d="M142.1,23v-8.3c0-1.9,1.3-3.4,3.1-3.4c1.7,0,2.9,1.3,2.9,3.1V23h4.2v-9.4c0-3.5-2.2-5.9-5.6-5.9
	c-2.1,0-3.7,0.9-4.6,2.3V7.9h-4.2V23H142.1z"/>
</svg>
