<svg xmlns="http://www.w3.org/2000/svg" viewBox="0 0 35.6 32.3"><defs><style>.cls-1{fill:#fff;}</style></defs><g id="Layer_2" data-name="Layer 2"><g id="Layer_1-2" data-name="Layer 1"><path class="cls-1" d="M27,9.9a2.17,2.17,0,0,0-2.2,0L19.7,13l-3.5,2-5.3,3.1a2.17,2.17,0,0,1-2.2,0L4.6,15.7a2.31,2.31,0,0,1-1.1-2V8.9a2.31,2.31,0,0,1,1.1-2l4-2.4a2.17,2.17,0,0,1,2.2,0l4,2.4a2.31,2.31,0,0,1,1.2,2V12l3.5-2.1V6.8a2.31,2.31,0,0,0-1.1-2L11,.3A2.17,2.17,0,0,0,8.8.3L1.1,4.9A2.14,2.14,0,0,0,0,6.8v9a2.31,2.31,0,0,0,1.1,2l7.6,4.5a2.17,2.17,0,0,0,2.2,0l5.1-3,3.5-2.1,5.1-3a2.17,2.17,0,0,1,2.2,0l4,2.4a2.31,2.31,0,0,1,1.1,2v4.8a2.31,2.31,0,0,1-1.1,2l-4,2.4a2.17,2.17,0,0,1-2.2,0l-4-2.4a2.31,2.31,0,0,1-1.1-2V20.3L16,22.4v3.1a2.31,2.31,0,0,0,1.1,2L24.7,32a2.17,2.17,0,0,0,2.2,0l7.6-4.5a2.31,2.31,0,0,0,1.1-2v-9a2.31,2.31,0,0,0-1.1-2Z"/></g></g></svg>